{
	"asset":{
		"generator":"Khronos glTF Blender I/O v4.0.44",
		"version":"2.0"
	},
	"scene":0,
	"scenes":[
		{
			"name":"Scene",
			"nodes":[
				0
			]
		}
	],
	"nodes":[
		{
			"mesh":0,
			"name":"gold_dust"
		}
	],
	"materials":[
		{
			"doubleSided":true,
			"name":"gold_dust_material",
			"pbrMetallicRoughness":{
				"baseColorFactor":[
					0.8500000238418579,
					0.699999988079071,
					0,
					1
				],
				"metallicFactor":0,
				"roughnessFactor":0.800000011920929
			}
		}
	],
	"meshes":[
		{
			"name":"dust_particle.027",
			"primitives":[
				{
					"attributes":{
						"POSITION":0,
						"NORMAL":1
					},
					"indices":2,
					"material":0
				}
			]
		}
	],
	"accessors":[
		{
			"bufferView":0,
			"componentType":5126,
			"count":432,
			"max":[
				0.10892803966999054,
				0.0681033506989479,
				0.11798863857984543
			],
			"min":[
				-0.10892803966999054,
				-0.0681033506989479,
				-0.11798863857984543
			],
			"type":"VEC3"
		},
		{
			"bufferView":1,
			"componentType":5126,
			"count":432,
			"type":"VEC3"
		},
		{
			"bufferView":2,
			"componentType":5123,
			"count":756,
			"type":"SCALAR"
		}
	],
	"bufferViews":[
		{
			"buffer":0,
			"byteLength":5184,
			"byteOffset":0,
			"target":34962
		},
		{
			"buffer":0,
			"byteLength":5184,
			"byteOffset":5184,
			"target":34962
		},
		{
			"buffer":0,
			"byteLength":1512,
			"byteOffset":10368,
			"target":34963
		}
	],
	"buffers":[
		{
			"byteLength":11880,
			"uri":"gold_dust.bin"
		}
	]
}
