{
	"asset":{
		"generator":"Khronos glTF Blender I/O v4.0.44",
		"version":"2.0"
	},
	"scene":0,
	"scenes":[
		{
			"name":"Scene",
			"nodes":[
				0
			]
		}
	],
	"nodes":[
		{
			"mesh":0,
			"name":"Axe",
			"translation":[
				0.019999999552965164,
				0.0949999988079071,
				0
			]
		}
	],
	"materials":[
		{
			"doubleSided":true,
			"name":"Steel",
			"pbrMetallicRoughness":{
				"baseColorFactor":[
					0.30000001192092896,
					0.30000001192092896,
					0.3199999928474426,
					1
				],
				"metallicFactor":0.8999999761581421,
				"roughnessFactor":0.44999998807907104
			}
		},
		{
			"doubleSided":true,
			"name":"Wood",
			"pbrMetallicRoughness":{
				"baseColorFactor":[
					0.6000000238418579,
					0.4000000059604645,
					0.15000000596046448,
					1
				],
				"metallicFactor":0,
				"roughnessFactor":0.800000011920929
			}
		},
		{
			"doubleSided":true,
			"name":"Iron",
			"pbrMetallicRoughness":{
				"baseColorFactor":[
					0.5,
					0.5,
					0.5,
					1
				],
				"metallicFactor":0.8500000238418579,
				"roughnessFactor":0.4000000059604645
			}
		}
	],
	"meshes":[
		{
			"name":"AxeBack",
			"primitives":[
				{
					"attributes":{
						"POSITION":0,
						"NORMAL":1
					},
					"indices":2,
					"material":0
				},
				{
					"attributes":{
						"POSITION":3,
						"NORMAL":4
					},
					"indices":5,
					"material":1
				},
				{
					"attributes":{
						"POSITION":6,
						"NORMAL":7
					},
					"indices":8,
					"material":2
				}
			]
		}
	],
	"accessors":[
		{
			"bufferView":0,
			"componentType":5126,
			"count":72,
			"max":[
				-0.006280388683080673,
				0.07750000059604645,
				0.013719610869884491
			],
			"min":[
				-0.03500000014901161,
				0.04500000178813934,
				-0.013719610869884491
			],
			"type":"VEC3"
		},
		{
			"bufferView":1,
			"componentType":5126,
			"count":72,
			"type":"VEC3"
		},
		{
			"bufferView":2,
			"componentType":5123,
			"count":120,
			"type":"SCALAR"
		},
		{
			"bufferView":3,
			"componentType":5126,
			"count":48,
			"max":[
				-0.009837324731051922,
				0.04500000178813934,
				0.010162674821913242
			],
			"min":[
				-0.030162673443555832,
				-0.0949999988079071,
				-0.010162674821913242
			],
			"type":"VEC3"
		},
		{
			"bufferView":4,
			"componentType":5126,
			"count":48,
			"type":"VEC3"
		},
		{
			"bufferView":5,
			"componentType":5123,
			"count":84,
			"type":"SCALAR"
		},
		{
			"bufferView":6,
			"componentType":5126,
			"count":24,
			"max":[
				0.03500000014901161,
				0.0949999988079071,
				0.006000000052154064
			],
			"min":[
				-0.019999999552965164,
				0.04800000786781311,
				-0.006000000052154064
			],
			"type":"VEC3"
		},
		{
			"bufferView":7,
			"componentType":5126,
			"count":24,
			"type":"VEC3"
		},
		{
			"bufferView":8,
			"componentType":5123,
			"count":36,
			"type":"SCALAR"
		}
	],
	"bufferViews":[
		{
			"buffer":0,
			"byteLength":864,
			"byteOffset":0,
			"target":34962
		},
		{
			"buffer":0,
			"byteLength":864,
			"byteOffset":864,
			"target":34962
		},
		{
			"buffer":0,
			"byteLength":240,
			"byteOffset":1728,
			"target":34963
		},
		{
			"buffer":0,
			"byteLength":576,
			"byteOffset":1968,
			"target":34962
		},
		{
			"buffer":0,
			"byteLength":576,
			"byteOffset":2544,
			"target":34962
		},
		{
			"buffer":0,
			"byteLength":168,
			"byteOffset":3120,
			"target":34963
		},
		{
			"buffer":0,
			"byteLength":288,
			"byteOffset":3288,
			"target":34962
		},
		{
			"buffer":0,
			"byteLength":288,
			"byteOffset":3576,
			"target":34962
		},
		{
			"buffer":0,
			"byteLength":72,
			"byteOffset":3864,
			"target":34963
		}
	],
	"buffers":[
		{
			"byteLength":3936,
			"uri":"axe.bin"
		}
	]
}
