{
	"asset":{
		"generator":"Khronos glTF Blender I/O v4.0.44",
		"version":"2.0"
	},
	"scene":0,
	"scenes":[
		{
			"name":"Scene",
			"nodes":[
				0
			]
		}
	],
	"nodes":[
		{
			"mesh":0,
			"name":"Wrench",
			"translation":[
				0,
				0.07649999856948853,
				0
			]
		}
	],
	"materials":[
		{
			"doubleSided":true,
			"name":"Steel",
			"pbrMetallicRoughness":{
				"baseColorFactor":[
					0.30000001192092896,
					0.30000001192092896,
					0.3199999928474426,
					1
				],
				"metallicFactor":0.8999999761581421,
				"roughnessFactor":0.44999998807907104
			}
		},
		{
			"doubleSided":true,
			"name":"Iron",
			"pbrMetallicRoughness":{
				"baseColorFactor":[
					0.5,
					0.5,
					0.5,
					1
				],
				"metallicFactor":0.8500000238418579,
				"roughnessFactor":0.4000000059604645
			}
		}
	],
	"meshes":[
		{
			"name":"BoxOuter",
			"primitives":[
				{
					"attributes":{
						"POSITION":0,
						"NORMAL":1
					},
					"indices":2,
					"material":0
				},
				{
					"attributes":{
						"POSITION":3,
						"NORMAL":4
					},
					"indices":5,
					"material":1
				}
			]
		}
	],
	"accessors":[
		{
			"bufferView":0,
			"componentType":5126,
			"count":168,
			"max":[
				0.01549999974668026,
				0.09149999916553497,
				0.010392304509878159
			],
			"min":[
				-0.01549999974668026,
				-0.09149999916553497,
				-0.010392304509878159
			],
			"type":"VEC3"
		},
		{
			"bufferView":1,
			"componentType":5126,
			"count":168,
			"type":"VEC3"
		},
		{
			"bufferView":2,
			"componentType":5123,
			"count":312,
			"type":"SCALAR"
		},
		{
			"bufferView":3,
			"componentType":5126,
			"count":96,
			"max":[
				0.01549999974668026,
				0.07149998843669891,
				0.008999999612569809
			],
			"min":[
				-0.01549999974668026,
				-0.07649999856948853,
				-0.008999999612569809
			],
			"type":"VEC3"
		},
		{
			"bufferView":4,
			"componentType":5126,
			"count":96,
			"type":"VEC3"
		},
		{
			"bufferView":5,
			"componentType":5123,
			"count":168,
			"type":"SCALAR"
		}
	],
	"bufferViews":[
		{
			"buffer":0,
			"byteLength":2016,
			"byteOffset":0,
			"target":34962
		},
		{
			"buffer":0,
			"byteLength":2016,
			"byteOffset":2016,
			"target":34962
		},
		{
			"buffer":0,
			"byteLength":624,
			"byteOffset":4032,
			"target":34963
		},
		{
			"buffer":0,
			"byteLength":1152,
			"byteOffset":4656,
			"target":34962
		},
		{
			"buffer":0,
			"byteLength":1152,
			"byteOffset":5808,
			"target":34962
		},
		{
			"buffer":0,
			"byteLength":336,
			"byteOffset":6960,
			"target":34963
		}
	],
	"buffers":[
		{
			"byteLength":7296,
			"uri":"wrench.bin"
		}
	]
}
