{
	"asset":{
		"generator":"Khronos glTF Blender I/O v4.0.44",
		"version":"2.0"
	},
	"scene":0,
	"scenes":[
		{
			"name":"Scene",
			"nodes":[
				0
			]
		}
	],
	"nodes":[
		{
			"mesh":0,
			"name":"Axe"
		}
	],
	"materials":[
		{
			"doubleSided":true,
			"name":"Wood",
			"pbrMetallicRoughness":{
				"baseColorFactor":[
					0.550000011920929,
					0.4099999964237213,
					0.07999999821186066,
					1
				],
				"metallicFactor":0,
				"roughnessFactor":0.800000011920929
			}
		},
		{
			"doubleSided":true,
			"name":"Iron",
			"pbrMetallicRoughness":{
				"baseColorFactor":[
					0.44999998807907104,
					0.44999998807907104,
					0.44999998807907104,
					1
				],
				"metallicFactor":0.8999999761581421,
				"roughnessFactor":0.4000000059604645
			}
		},
		{
			"doubleSided":true,
			"name":"DarkSteel",
			"pbrMetallicRoughness":{
				"baseColorFactor":[
					0.25,
					0.25,
					0.25,
					1
				],
				"metallicFactor":0.949999988079071,
				"roughnessFactor":0.5
			}
		}
	],
	"meshes":[
		{
			"name":"Handle.028",
			"primitives":[
				{
					"attributes":{
						"POSITION":0,
						"NORMAL":1
					},
					"indices":2,
					"material":0
				},
				{
					"attributes":{
						"POSITION":3,
						"NORMAL":4
					},
					"indices":5,
					"material":1
				},
				{
					"attributes":{
						"POSITION":6,
						"NORMAL":7
					},
					"indices":8,
					"material":2
				}
			]
		}
	],
	"accessors":[
		{
			"bufferView":0,
			"componentType":5126,
			"count":96,
			"max":[
				-0.008804789744317532,
				0.14000000059604645,
				0.012195209972560406
			],
			"min":[
				-0.03319521248340607,
				0,
				-0.012195209972560406
			],
			"type":"VEC3"
		},
		{
			"bufferView":1,
			"componentType":5126,
			"count":96,
			"type":"VEC3"
		},
		{
			"bufferView":2,
			"componentType":5123,
			"count":168,
			"type":"SCALAR"
		},
		{
			"bufferView":3,
			"componentType":5126,
			"count":24,
			"max":[
				0.049000002443790436,
				0.1850000023841858,
				0.008999999612569809
			],
			"min":[
				-0.035999998450279236,
				0.14000000059604645,
				-0.008999999612569809
			],
			"type":"VEC3"
		},
		{
			"bufferView":4,
			"componentType":5126,
			"count":24,
			"type":"VEC3"
		},
		{
			"bufferView":5,
			"componentType":5123,
			"count":36,
			"type":"SCALAR"
		},
		{
			"bufferView":6,
			"componentType":5126,
			"count":96,
			"max":[
				-0.009999999776482582,
				0.18275000154972076,
				0.00989999994635582
			],
			"min":[
				-0.049000002443790436,
				0.14225000143051147,
				-0.00989999994635582
			],
			"type":"VEC3"
		},
		{
			"bufferView":7,
			"componentType":5126,
			"count":96,
			"type":"VEC3"
		},
		{
			"bufferView":8,
			"componentType":5123,
			"count":168,
			"type":"SCALAR"
		}
	],
	"bufferViews":[
		{
			"buffer":0,
			"byteLength":1152,
			"byteOffset":0,
			"target":34962
		},
		{
			"buffer":0,
			"byteLength":1152,
			"byteOffset":1152,
			"target":34962
		},
		{
			"buffer":0,
			"byteLength":336,
			"byteOffset":2304,
			"target":34963
		},
		{
			"buffer":0,
			"byteLength":288,
			"byteOffset":2640,
			"target":34962
		},
		{
			"buffer":0,
			"byteLength":288,
			"byteOffset":2928,
			"target":34962
		},
		{
			"buffer":0,
			"byteLength":72,
			"byteOffset":3216,
			"target":34963
		},
		{
			"buffer":0,
			"byteLength":1152,
			"byteOffset":3288,
			"target":34962
		},
		{
			"buffer":0,
			"byteLength":1152,
			"byteOffset":4440,
			"target":34962
		},
		{
			"buffer":0,
			"byteLength":336,
			"byteOffset":5592,
			"target":34963
		}
	],
	"buffers":[
		{
			"byteLength":5928,
			"uri":"axe.bin"
		}
	]
}
