{
	"asset":{
		"generator":"Khronos glTF Blender I/O v4.0.44",
		"version":"2.0"
	},
	"scene":0,
	"scenes":[
		{
			"name":"Scene",
			"nodes":[
				0
			]
		}
	],
	"nodes":[
		{
			"mesh":0,
			"name":"Axe"
		}
	],
	"materials":[
		{
			"doubleSided":true,
			"name":"wood.001",
			"pbrMetallicRoughness":{
				"baseColorFactor":[
					0.550000011920929,
					0.4099999964237213,
					0.07999999821186066,
					1
				],
				"metallicFactor":0,
				"roughnessFactor":0.800000011920929
			}
		},
		{
			"doubleSided":true,
			"name":"grip",
			"pbrMetallicRoughness":{
				"baseColorFactor":[
					0.44999998807907104,
					0.33000001311302185,
					0.05999999865889549,
					1
				],
				"metallicFactor":0,
				"roughnessFactor":0.8999999761581421
			}
		},
		{
			"doubleSided":true,
			"name":"wood.002",
			"pbrMetallicRoughness":{
				"baseColorFactor":[
					0.550000011920929,
					0.4099999964237213,
					0.07999999821186066,
					1
				],
				"metallicFactor":0,
				"roughnessFactor":0.800000011920929
			}
		},
		{
			"doubleSided":true,
			"name":"dark_steel",
			"pbrMetallicRoughness":{
				"baseColorFactor":[
					0.18000000715255737,
					0.18000000715255737,
					0.18000000715255737,
					1
				],
				"roughnessFactor":0.6000000238418579
			}
		},
		{
			"doubleSided":true,
			"name":"iron",
			"pbrMetallicRoughness":{
				"baseColorFactor":[
					0.28999999165534973,
					0.28999999165534973,
					0.28999999165534973,
					1
				],
				"roughnessFactor":0.5
			}
		},
		{
			"doubleSided":true,
			"name":"iron.001",
			"pbrMetallicRoughness":{
				"baseColorFactor":[
					0.28999999165534973,
					0.28999999165534973,
					0.28999999165534973,
					1
				],
				"roughnessFactor":0.5
			}
		},
		{
			"doubleSided":true,
			"name":"iron.002",
			"pbrMetallicRoughness":{
				"baseColorFactor":[
					0.28999999165534973,
					0.28999999165534973,
					0.28999999165534973,
					1
				],
				"roughnessFactor":0.5
			}
		}
	],
	"meshes":[
		{
			"name":"Handle.002",
			"primitives":[
				{
					"attributes":{
						"POSITION":0,
						"NORMAL":1
					},
					"indices":2,
					"material":0
				},
				{
					"attributes":{
						"POSITION":3,
						"NORMAL":4
					},
					"indices":5,
					"material":1
				},
				{
					"attributes":{
						"POSITION":6,
						"NORMAL":7
					},
					"indices":2,
					"material":2
				},
				{
					"attributes":{
						"POSITION":8,
						"NORMAL":9
					},
					"indices":2,
					"material":3
				},
				{
					"attributes":{
						"POSITION":10,
						"NORMAL":11
					},
					"indices":12,
					"material":4
				},
				{
					"attributes":{
						"POSITION":13,
						"NORMAL":14
					},
					"indices":15,
					"material":5
				},
				{
					"attributes":{
						"POSITION":16,
						"NORMAL":17
					},
					"indices":12,
					"material":6
				}
			]
		}
	],
	"accessors":[
		{
			"bufferView":0,
			"componentType":5126,
			"count":48,
			"max":[
				0.011086554266512394,
				0.07625000178813934,
				0.0360865518450737
			],
			"min":[
				-0.011086554266512394,
				-0.08374999463558197,
				0.013913444243371487
			],
			"type":"VEC3"
		},
		{
			"bufferView":1,
			"componentType":5126,
			"count":48,
			"type":"VEC3"
		},
		{
			"bufferView":2,
			"componentType":5123,
			"count":84,
			"type":"SCALAR"
		},
		{
			"bufferView":3,
			"componentType":5126,
			"count":144,
			"max":[
				0.012195209972560406,
				-0.005750000476837158,
				0.03719520941376686
			],
			"min":[
				-0.012195209972560406,
				-0.04574999958276749,
				0.012804788537323475
			],
			"type":"VEC3"
		},
		{
			"bufferView":4,
			"componentType":5126,
			"count":144,
			"type":"VEC3"
		},
		{
			"bufferView":5,
			"componentType":5123,
			"count":252,
			"type":"SCALAR"
		},
		{
			"bufferView":6,
			"componentType":5126,
			"count":48,
			"max":[
				0.012749537825584412,
				-0.07574999332427979,
				0.03774953633546829
			],
			"min":[
				-0.012749537825584412,
				-0.08374999463558197,
				0.012250460684299469
			],
			"type":"VEC3"
		},
		{
			"bufferView":7,
			"componentType":5126,
			"count":48,
			"type":"VEC3"
		},
		{
			"bufferView":8,
			"componentType":5126,
			"count":48,
			"max":[
				0.014782072976231575,
				0.07625000178813934,
				0.039782069623470306
			],
			"min":[
				-0.014782072976231575,
				0.058250002562999725,
				0.010217925533652306
			],
			"type":"VEC3"
		},
		{
			"bufferView":9,
			"componentType":5126,
			"count":48,
			"type":"VEC3"
		},
		{
			"bufferView":10,
			"componentType":5126,
			"count":48,
			"max":[
				0.012500000186264515,
				0.07625000178813934,
				0.04249999672174454
			],
			"min":[
				-0.012500000186264515,
				0.036249998956918716,
				0.007499998435378075
			],
			"type":"VEC3"
		},
		{
			"bufferView":11,
			"componentType":5126,
			"count":48,
			"type":"VEC3"
		},
		{
			"bufferView":12,
			"componentType":5123,
			"count":84,
			"type":"SCALAR"
		},
		{
			"bufferView":13,
			"componentType":5126,
			"count":24,
			"max":[
				0.007499999832361937,
				0.08374999463558197,
				0.007499998435378075
			],
			"min":[
				-0.007499999832361937,
				0.028749998658895493,
				-0.0625
			],
			"type":"VEC3"
		},
		{
			"bufferView":14,
			"componentType":5126,
			"count":24,
			"type":"VEC3"
		},
		{
			"bufferView":15,
			"componentType":5123,
			"count":36,
			"type":"SCALAR"
		},
		{
			"bufferView":16,
			"componentType":5126,
			"count":48,
			"max":[
				0.008999999612569809,
				0.07124999165534973,
				0.0625
			],
			"min":[
				-0.008999999612569809,
				0.04124999791383743,
				0.04249999672174454
			],
			"type":"VEC3"
		},
		{
			"bufferView":17,
			"componentType":5126,
			"count":48,
			"type":"VEC3"
		}
	],
	"bufferViews":[
		{
			"buffer":0,
			"byteLength":576,
			"byteOffset":0,
			"target":34962
		},
		{
			"buffer":0,
			"byteLength":576,
			"byteOffset":576,
			"target":34962
		},
		{
			"buffer":0,
			"byteLength":168,
			"byteOffset":1152,
			"target":34963
		},
		{
			"buffer":0,
			"byteLength":1728,
			"byteOffset":1320,
			"target":34962
		},
		{
			"buffer":0,
			"byteLength":1728,
			"byteOffset":3048,
			"target":34962
		},
		{
			"buffer":0,
			"byteLength":504,
			"byteOffset":4776,
			"target":34963
		},
		{
			"buffer":0,
			"byteLength":576,
			"byteOffset":5280,
			"target":34962
		},
		{
			"buffer":0,
			"byteLength":576,
			"byteOffset":5856,
			"target":34962
		},
		{
			"buffer":0,
			"byteLength":576,
			"byteOffset":6432,
			"target":34962
		},
		{
			"buffer":0,
			"byteLength":576,
			"byteOffset":7008,
			"target":34962
		},
		{
			"buffer":0,
			"byteLength":576,
			"byteOffset":7584,
			"target":34962
		},
		{
			"buffer":0,
			"byteLength":576,
			"byteOffset":8160,
			"target":34962
		},
		{
			"buffer":0,
			"byteLength":168,
			"byteOffset":8736,
			"target":34963
		},
		{
			"buffer":0,
			"byteLength":288,
			"byteOffset":8904,
			"target":34962
		},
		{
			"buffer":0,
			"byteLength":288,
			"byteOffset":9192,
			"target":34962
		},
		{
			"buffer":0,
			"byteLength":72,
			"byteOffset":9480,
			"target":34963
		},
		{
			"buffer":0,
			"byteLength":576,
			"byteOffset":9552,
			"target":34962
		},
		{
			"buffer":0,
			"byteLength":576,
			"byteOffset":10128,
			"target":34962
		}
	],
	"buffers":[
		{
			"byteLength":10704,
			"uri":"axe.bin"
		}
	]
}
