{
	"asset":{
		"generator":"Khronos glTF Blender I/O v4.0.44",
		"version":"2.0"
	},
	"scene":0,
	"scenes":[
		{
			"name":"Scene",
			"nodes":[
				0
			]
		}
	],
	"nodes":[
		{
			"mesh":0,
			"name":"Hammer"
		}
	],
	"materials":[
		{
			"doubleSided":true,
			"name":"wood.002",
			"pbrMetallicRoughness":{
				"baseColorFactor":[
					0.550000011920929,
					0.4099999964237213,
					0.07999999821186066,
					1
				],
				"metallicFactor":0,
				"roughnessFactor":0.800000011920929
			}
		},
		{
			"doubleSided":true,
			"name":"grip.001",
			"pbrMetallicRoughness":{
				"baseColorFactor":[
					0.44999998807907104,
					0.33000001311302185,
					0.05999999865889549,
					1
				],
				"metallicFactor":0,
				"roughnessFactor":0.8999999761581421
			}
		},
		{
			"doubleSided":true,
			"name":"dark_steel.001",
			"pbrMetallicRoughness":{
				"baseColorFactor":[
					0.18000000715255737,
					0.18000000715255737,
					0.18000000715255737,
					1
				],
				"roughnessFactor":0.6000000238418579
			}
		},
		{
			"doubleSided":true,
			"name":"iron.001",
			"pbrMetallicRoughness":{
				"baseColorFactor":[
					0.28999999165534973,
					0.28999999165534973,
					0.28999999165534973,
					1
				],
				"roughnessFactor":0.5
			}
		}
	],
	"meshes":[
		{
			"name":"Handle.005",
			"primitives":[
				{
					"attributes":{
						"POSITION":0,
						"NORMAL":1
					},
					"indices":2,
					"material":0
				},
				{
					"attributes":{
						"POSITION":3,
						"NORMAL":4
					},
					"indices":5,
					"material":1
				},
				{
					"attributes":{
						"POSITION":6,
						"NORMAL":7
					},
					"indices":8,
					"material":2
				},
				{
					"attributes":{
						"POSITION":9,
						"NORMAL":10
					},
					"indices":11,
					"material":3
				}
			]
		}
	],
	"accessors":[
		{
			"bufferView":0,
			"componentType":5126,
			"count":96,
			"max":[
				0.012195209972560406,
				0.04350000247359276,
				0.012195209972560406
			],
			"min":[
				-0.012195209972560406,
				-0.09649999439716339,
				-0.012195209972560406
			],
			"type":"VEC3"
		},
		{
			"bufferView":1,
			"componentType":5126,
			"count":96,
			"type":"VEC3"
		},
		{
			"bufferView":2,
			"componentType":5123,
			"count":168,
			"type":"SCALAR"
		},
		{
			"bufferView":3,
			"componentType":5126,
			"count":144,
			"max":[
				0.011687075719237328,
				-0.04399999976158142,
				0.011687075719237328
			],
			"min":[
				-0.011687075719237328,
				-0.07899999618530273,
				-0.011687075719237328
			],
			"type":"VEC3"
		},
		{
			"bufferView":4,
			"componentType":5126,
			"count":144,
			"type":"VEC3"
		},
		{
			"bufferView":5,
			"componentType":5123,
			"count":252,
			"type":"SCALAR"
		},
		{
			"bufferView":6,
			"componentType":5126,
			"count":48,
			"max":[
				0.014782072976231575,
				0.05350000038743019,
				0.014782072976231575
			],
			"min":[
				-0.014782072976231575,
				0.03849999979138374,
				-0.014782072976231575
			],
			"type":"VEC3"
		},
		{
			"bufferView":7,
			"componentType":5126,
			"count":48,
			"type":"VEC3"
		},
		{
			"bufferView":8,
			"componentType":5123,
			"count":84,
			"type":"SCALAR"
		},
		{
			"bufferView":9,
			"componentType":5126,
			"count":48,
			"max":[
				0.04500000178813934,
				0.09649999439716339,
				0.017500000074505806
			],
			"min":[
				-0.04500000178813934,
				0.051499996334314346,
				-0.017500000074505806
			],
			"type":"VEC3"
		},
		{
			"bufferView":10,
			"componentType":5126,
			"count":48,
			"type":"VEC3"
		},
		{
			"bufferView":11,
			"componentType":5123,
			"count":84,
			"type":"SCALAR"
		}
	],
	"bufferViews":[
		{
			"buffer":0,
			"byteLength":1152,
			"byteOffset":0,
			"target":34962
		},
		{
			"buffer":0,
			"byteLength":1152,
			"byteOffset":1152,
			"target":34962
		},
		{
			"buffer":0,
			"byteLength":336,
			"byteOffset":2304,
			"target":34963
		},
		{
			"buffer":0,
			"byteLength":1728,
			"byteOffset":2640,
			"target":34962
		},
		{
			"buffer":0,
			"byteLength":1728,
			"byteOffset":4368,
			"target":34962
		},
		{
			"buffer":0,
			"byteLength":504,
			"byteOffset":6096,
			"target":34963
		},
		{
			"buffer":0,
			"byteLength":576,
			"byteOffset":6600,
			"target":34962
		},
		{
			"buffer":0,
			"byteLength":576,
			"byteOffset":7176,
			"target":34962
		},
		{
			"buffer":0,
			"byteLength":168,
			"byteOffset":7752,
			"target":34963
		},
		{
			"buffer":0,
			"byteLength":576,
			"byteOffset":7920,
			"target":34962
		},
		{
			"buffer":0,
			"byteLength":576,
			"byteOffset":8496,
			"target":34962
		},
		{
			"buffer":0,
			"byteLength":168,
			"byteOffset":9072,
			"target":34963
		}
	],
	"buffers":[
		{
			"byteLength":9240,
			"uri":"hammer.bin"
		}
	]
}
