{
	"asset":{
		"generator":"Khronos glTF Blender I/O v4.0.44",
		"version":"2.0"
	},
	"scene":0,
	"scenes":[
		{
			"name":"Scene",
			"nodes":[
				0
			]
		}
	],
	"nodes":[
		{
			"mesh":0,
			"name":"PalSphere"
		}
	],
	"materials":[
		{
			"doubleSided":true,
			"name":"Red",
			"pbrMetallicRoughness":{
				"baseColorFactor":[
					0.8500000238418579,
					0.15000000596046448,
					0.15000000596046448,
					1
				],
				"metallicFactor":0.30000001192092896,
				"roughnessFactor":0.4000000059604645
			}
		},
		{
			"doubleSided":true,
			"name":"White",
			"pbrMetallicRoughness":{
				"baseColorFactor":[
					0.949999988079071,
					0.949999988079071,
					0.949999988079071,
					1
				],
				"metallicFactor":0.20000000298023224,
				"roughnessFactor":0.5
			}
		},
		{
			"doubleSided":true,
			"name":"Dark",
			"pbrMetallicRoughness":{
				"baseColorFactor":[
					0.15000000596046448,
					0.15000000596046448,
					0.15000000596046448,
					1
				],
				"metallicFactor":0.5,
				"roughnessFactor":0.4000000059604645
			}
		},
		{
			"doubleSided":true,
			"name":"Button",
			"pbrMetallicRoughness":{
				"baseColorFactor":[
					0.30000001192092896,
					0.30000001192092896,
					0.30000001192092896,
					1
				],
				"metallicFactor":0.800000011920929,
				"roughnessFactor":0.30000001192092896
			}
		},
		{
			"doubleSided":true,
			"name":"Glow",
			"pbrMetallicRoughness":{
				"baseColorFactor":[
					1,
					0.30000001192092896,
					0.30000001192092896,
					1
				],
				"metallicFactor":0,
				"roughnessFactor":0.10000000149011612
			}
		}
	],
	"meshes":[
		{
			"name":"SphereTop",
			"primitives":[
				{
					"attributes":{
						"POSITION":0,
						"NORMAL":1
					},
					"indices":2,
					"material":0
				},
				{
					"attributes":{
						"POSITION":3,
						"NORMAL":4
					},
					"indices":2,
					"material":1
				},
				{
					"attributes":{
						"POSITION":5,
						"NORMAL":6
					},
					"indices":7,
					"material":2
				},
				{
					"attributes":{
						"POSITION":8,
						"NORMAL":9
					},
					"indices":10,
					"material":3
				},
				{
					"attributes":{
						"POSITION":11,
						"NORMAL":12
					},
					"indices":10,
					"material":4
				}
			]
		}
	],
	"accessors":[
		{
			"bufferView":0,
			"componentType":5126,
			"count":48,
			"max":[
				0.11086554080247879,
				0.05999999865889549,
				0.11086554080247879
			],
			"min":[
				-0.11086554080247879,
				-0.05999999865889549,
				-0.11086554080247879
			],
			"type":"VEC3"
		},
		{
			"bufferView":1,
			"componentType":5126,
			"count":48,
			"type":"VEC3"
		},
		{
			"bufferView":2,
			"componentType":5123,
			"count":84,
			"type":"SCALAR"
		},
		{
			"bufferView":3,
			"componentType":5126,
			"count":48,
			"max":[
				0.11086554080247879,
				-0.05999999865889549,
				0.11086554080247879
			],
			"min":[
				-0.11086554080247879,
				-0.17999999225139618,
				-0.11086554080247879
			],
			"type":"VEC3"
		},
		{
			"bufferView":4,
			"componentType":5126,
			"count":48,
			"type":"VEC3"
		},
		{
			"bufferView":5,
			"componentType":5126,
			"count":144,
			"max":[
				0.1201043426990509,
				0.07999999076128006,
				0.1201043426990509
			],
			"min":[
				-0.1201043426990509,
				-0.07499999552965164,
				-0.1201043426990509
			],
			"type":"VEC3"
		},
		{
			"bufferView":6,
			"componentType":5126,
			"count":144,
			"type":"VEC3"
		},
		{
			"bufferView":7,
			"componentType":5123,
			"count":252,
			"type":"SCALAR"
		},
		{
			"bufferView":8,
			"componentType":5126,
			"count":48,
			"max":[
				0.12999999523162842,
				-0.02304481714963913,
				0.03695518150925636
			],
			"min":[
				0.10999999940395355,
				-0.09695518016815186,
				-0.03695518150925636
			],
			"type":"VEC3"
		},
		{
			"bufferView":9,
			"componentType":5126,
			"count":48,
			"type":"VEC3"
		},
		{
			"bufferView":10,
			"componentType":5123,
			"count":84,
			"type":"SCALAR"
		},
		{
			"bufferView":11,
			"componentType":5126,
			"count":48,
			"max":[
				0.14250001311302185,
				-0.036903008818626404,
				0.02309698797762394
			],
			"min":[
				0.1274999976158142,
				-0.08309698849916458,
				-0.02309698797762394
			],
			"type":"VEC3"
		},
		{
			"bufferView":12,
			"componentType":5126,
			"count":48,
			"type":"VEC3"
		}
	],
	"bufferViews":[
		{
			"buffer":0,
			"byteLength":576,
			"byteOffset":0,
			"target":34962
		},
		{
			"buffer":0,
			"byteLength":576,
			"byteOffset":576,
			"target":34962
		},
		{
			"buffer":0,
			"byteLength":168,
			"byteOffset":1152,
			"target":34963
		},
		{
			"buffer":0,
			"byteLength":576,
			"byteOffset":1320,
			"target":34962
		},
		{
			"buffer":0,
			"byteLength":576,
			"byteOffset":1896,
			"target":34962
		},
		{
			"buffer":0,
			"byteLength":1728,
			"byteOffset":2472,
			"target":34962
		},
		{
			"buffer":0,
			"byteLength":1728,
			"byteOffset":4200,
			"target":34962
		},
		{
			"buffer":0,
			"byteLength":504,
			"byteOffset":5928,
			"target":34963
		},
		{
			"buffer":0,
			"byteLength":576,
			"byteOffset":6432,
			"target":34962
		},
		{
			"buffer":0,
			"byteLength":576,
			"byteOffset":7008,
			"target":34962
		},
		{
			"buffer":0,
			"byteLength":168,
			"byteOffset":7584,
			"target":34963
		},
		{
			"buffer":0,
			"byteLength":576,
			"byteOffset":7752,
			"target":34962
		},
		{
			"buffer":0,
			"byteLength":576,
			"byteOffset":8328,
			"target":34962
		}
	],
	"buffers":[
		{
			"byteLength":8904,
			"uri":"pal_sphere.bin"
		}
	]
}
