{
	"asset":{
		"generator":"Khronos glTF Blender I/O v4.0.44",
		"version":"2.0"
	},
	"scene":0,
	"scenes":[
		{
			"name":"Scene",
			"nodes":[
				0
			]
		}
	],
	"nodes":[
		{
			"mesh":0,
			"name":"Shovel"
		}
	],
	"materials":[
		{
			"doubleSided":true,
			"name":"wood.004",
			"pbrMetallicRoughness":{
				"baseColorFactor":[
					0.550000011920929,
					0.4099999964237213,
					0.07999999821186066,
					1
				],
				"metallicFactor":0,
				"roughnessFactor":0.800000011920929
			}
		},
		{
			"doubleSided":true,
			"name":"grip.002",
			"pbrMetallicRoughness":{
				"baseColorFactor":[
					0.4399999976158142,
					0.33000001311302185,
					0.05999999865889549,
					1
				],
				"metallicFactor":0,
				"roughnessFactor":0.8999999761581421
			}
		},
		{
			"doubleSided":true,
			"name":"iron.005",
			"pbrMetallicRoughness":{
				"baseColorFactor":[
					0.28999999165534973,
					0.28999999165534973,
					0.28999999165534973,
					1
				],
				"roughnessFactor":0.5
			}
		}
	],
	"meshes":[
		{
			"name":"Handle.006",
			"primitives":[
				{
					"attributes":{
						"COLOR_0":0,
						"POSITION":1,
						"NORMAL":2
					},
					"indices":3,
					"material":0
				},
				{
					"attributes":{
						"COLOR_0":4,
						"POSITION":5,
						"NORMAL":6
					},
					"indices":7,
					"material":1
				},
				{
					"attributes":{
						"COLOR_0":8,
						"POSITION":9,
						"NORMAL":10
					},
					"indices":11,
					"material":2
				}
			]
		}
	],
	"accessors":[
		{
			"bufferView":0,
			"componentType":5123,
			"count":96,
			"normalized":true,
			"type":"VEC4"
		},
		{
			"bufferView":1,
			"componentType":5126,
			"count":96,
			"max":[
				0.012749537825584412,
				0.047999996691942215,
				0.012749537825584412
			],
			"min":[
				-0.012749537825584412,
				-0.12000000476837158,
				-0.012749537825584412
			],
			"type":"VEC3"
		},
		{
			"bufferView":2,
			"componentType":5126,
			"count":96,
			"type":"VEC3"
		},
		{
			"bufferView":3,
			"componentType":5123,
			"count":168,
			"type":"SCALAR"
		},
		{
			"bufferView":4,
			"componentType":5123,
			"count":144,
			"normalized":true,
			"type":"VEC4"
		},
		{
			"bufferView":5,
			"componentType":5126,
			"count":144,
			"max":[
				0.012416941113770008,
				-0.0568000003695488,
				0.012416941113770008
			],
			"min":[
				-0.012416941113770008,
				-0.09679999947547913,
				-0.012416941113770008
			],
			"type":"VEC3"
		},
		{
			"bufferView":6,
			"componentType":5126,
			"count":144,
			"type":"VEC3"
		},
		{
			"bufferView":7,
			"componentType":5123,
			"count":252,
			"type":"SCALAR"
		},
		{
			"bufferView":8,
			"componentType":5123,
			"count":144,
			"normalized":true,
			"type":"VEC4"
		},
		{
			"bufferView":9,
			"componentType":5126,
			"count":144,
			"max":[
				0.02879999950528145,
				0.12000000476837158,
				0.014412520453333855
			],
			"min":[
				-0.02879999950528145,
				0.044999998062849045,
				-0.014412520453333855
			],
			"type":"VEC3"
		},
		{
			"bufferView":10,
			"componentType":5126,
			"count":144,
			"type":"VEC3"
		},
		{
			"bufferView":11,
			"componentType":5123,
			"count":252,
			"type":"SCALAR"
		}
	],
	"bufferViews":[
		{
			"buffer":0,
			"byteLength":768,
			"byteOffset":0,
			"target":34962
		},
		{
			"buffer":0,
			"byteLength":1152,
			"byteOffset":768,
			"target":34962
		},
		{
			"buffer":0,
			"byteLength":1152,
			"byteOffset":1920,
			"target":34962
		},
		{
			"buffer":0,
			"byteLength":336,
			"byteOffset":3072,
			"target":34963
		},
		{
			"buffer":0,
			"byteLength":1152,
			"byteOffset":3408,
			"target":34962
		},
		{
			"buffer":0,
			"byteLength":1728,
			"byteOffset":4560,
			"target":34962
		},
		{
			"buffer":0,
			"byteLength":1728,
			"byteOffset":6288,
			"target":34962
		},
		{
			"buffer":0,
			"byteLength":504,
			"byteOffset":8016,
			"target":34963
		},
		{
			"buffer":0,
			"byteLength":1152,
			"byteOffset":8520,
			"target":34962
		},
		{
			"buffer":0,
			"byteLength":1728,
			"byteOffset":9672,
			"target":34962
		},
		{
			"buffer":0,
			"byteLength":1728,
			"byteOffset":11400,
			"target":34962
		},
		{
			"buffer":0,
			"byteLength":504,
			"byteOffset":13128,
			"target":34963
		}
	],
	"buffers":[
		{
			"byteLength":13632,
			"uri":"shovel.bin"
		}
	]
}
