{
	"asset":{
		"generator":"Khronos glTF Blender I/O v4.0.44",
		"version":"2.0"
	},
	"scene":0,
	"scenes":[
		{
			"name":"Scene",
			"nodes":[
				0
			]
		}
	],
	"nodes":[
		{
			"mesh":0,
			"name":"Shovel"
		}
	],
	"materials":[
		{
			"doubleSided":true,
			"name":"Wood",
			"pbrMetallicRoughness":{
				"baseColorFactor":[
					0.550000011920929,
					0.4099999964237213,
					0.07999999821186066,
					1
				],
				"metallicFactor":0,
				"roughnessFactor":0.800000011920929
			}
		},
		{
			"doubleSided":true,
			"name":"Iron",
			"pbrMetallicRoughness":{
				"baseColorFactor":[
					0.44999998807907104,
					0.44999998807907104,
					0.44999998807907104,
					1
				],
				"metallicFactor":0.8999999761581421,
				"roughnessFactor":0.4000000059604645
			}
		},
		{
			"doubleSided":true,
			"name":"DarkSteel",
			"pbrMetallicRoughness":{
				"baseColorFactor":[
					0.30000001192092896,
					0.30000001192092896,
					0.30000001192092896,
					1
				],
				"metallicFactor":0.8500000238418579,
				"roughnessFactor":0.5
			}
		}
	],
	"meshes":[
		{
			"name":"Handle.030",
			"primitives":[
				{
					"attributes":{
						"POSITION":0,
						"NORMAL":1
					},
					"indices":2,
					"material":0
				},
				{
					"attributes":{
						"POSITION":3,
						"NORMAL":4
					},
					"indices":5,
					"material":1
				},
				{
					"attributes":{
						"POSITION":6,
						"NORMAL":7
					},
					"indices":8,
					"material":2
				}
			]
		}
	],
	"accessors":[
		{
			"bufferView":0,
			"componentType":5126,
			"count":192,
			"max":[
				0.019999999552965164,
				0.2409999966621399,
				0.0031626755371689796
			],
			"min":[
				-0.019999999552965164,
				0.07699999213218689,
				-0.01716267317533493
			],
			"type":"VEC3"
		},
		{
			"bufferView":1,
			"componentType":5126,
			"count":192,
			"type":"VEC3"
		},
		{
			"bufferView":2,
			"componentType":5123,
			"count":336,
			"type":"SCALAR"
		},
		{
			"bufferView":3,
			"componentType":5126,
			"count":72,
			"max":[
				0.02199999988079071,
				0.07700000703334808,
				0.030500002205371857
			],
			"min":[
				-0.02199999988079071,
				0,
				-0.024500001221895218
			],
			"type":"VEC3"
		},
		{
			"bufferView":4,
			"componentType":5126,
			"count":72,
			"type":"VEC3"
		},
		{
			"bufferView":5,
			"componentType":5123,
			"count":120,
			"type":"SCALAR"
		},
		{
			"bufferView":6,
			"componentType":5126,
			"count":48,
			"max":[
				0.01924999989569187,
				0.029259994626045227,
				-0.024500001221895218
			],
			"min":[
				-0.01924999989569187,
				0.020020008087158203,
				-0.030500002205371857
			],
			"type":"VEC3"
		},
		{
			"bufferView":7,
			"componentType":5126,
			"count":48,
			"type":"VEC3"
		},
		{
			"bufferView":8,
			"componentType":5123,
			"count":84,
			"type":"SCALAR"
		}
	],
	"bufferViews":[
		{
			"buffer":0,
			"byteLength":2304,
			"byteOffset":0,
			"target":34962
		},
		{
			"buffer":0,
			"byteLength":2304,
			"byteOffset":2304,
			"target":34962
		},
		{
			"buffer":0,
			"byteLength":672,
			"byteOffset":4608,
			"target":34963
		},
		{
			"buffer":0,
			"byteLength":864,
			"byteOffset":5280,
			"target":34962
		},
		{
			"buffer":0,
			"byteLength":864,
			"byteOffset":6144,
			"target":34962
		},
		{
			"buffer":0,
			"byteLength":240,
			"byteOffset":7008,
			"target":34963
		},
		{
			"buffer":0,
			"byteLength":576,
			"byteOffset":7248,
			"target":34962
		},
		{
			"buffer":0,
			"byteLength":576,
			"byteOffset":7824,
			"target":34962
		},
		{
			"buffer":0,
			"byteLength":168,
			"byteOffset":8400,
			"target":34963
		}
	],
	"buffers":[
		{
			"byteLength":8568,
			"uri":"shovel.bin"
		}
	]
}
