{
	"asset":{
		"generator":"Khronos glTF Blender I/O v4.0.44",
		"version":"2.0"
	},
	"scene":0,
	"scenes":[
		{
			"name":"Scene",
			"nodes":[
				0
			]
		}
	],
	"nodes":[
		{
			"mesh":0,
			"name":"Wrench"
		}
	],
	"materials":[
		{
			"doubleSided":true,
			"name":"iron.004",
			"pbrMetallicRoughness":{
				"baseColorFactor":[
					0.28999999165534973,
					0.28999999165534973,
					0.28999999165534973,
					1
				],
				"roughnessFactor":0.5
			}
		},
		{
			"doubleSided":true,
			"name":"dark_steel.001",
			"pbrMetallicRoughness":{
				"baseColorFactor":[
					0.18000000715255737,
					0.18000000715255737,
					0.18000000715255737,
					1
				],
				"roughnessFactor":0.6000000238418579
			}
		}
	],
	"meshes":[
		{
			"name":"Handle.005",
			"primitives":[
				{
					"attributes":{
						"COLOR_0":0,
						"POSITION":1,
						"NORMAL":2
					},
					"indices":3,
					"material":0
				},
				{
					"attributes":{
						"COLOR_0":4,
						"POSITION":5,
						"NORMAL":6
					},
					"indices":7,
					"material":1
				}
			]
		}
	],
	"accessors":[
		{
			"bufferView":0,
			"componentType":5123,
			"count":144,
			"normalized":true,
			"type":"VEC4"
		},
		{
			"bufferView":1,
			"componentType":5126,
			"count":144,
			"max":[
				0.019999999552965164,
				0.07740000635385513,
				0.006000000052154064
			],
			"min":[
				-0.019999999552965164,
				-0.08100000023841858,
				-0.006000000052154064
			],
			"type":"VEC3"
		},
		{
			"bufferView":2,
			"componentType":5126,
			"count":144,
			"type":"VEC3"
		},
		{
			"bufferView":3,
			"componentType":5123,
			"count":252,
			"type":"SCALAR"
		},
		{
			"bufferView":4,
			"componentType":5123,
			"count":96,
			"normalized":true,
			"type":"VEC4"
		},
		{
			"bufferView":5,
			"componentType":5126,
			"count":96,
			"max":[
				0.019999999552965164,
				0.08100000023841858,
				0.007000000216066837
			],
			"min":[
				-0.019999999552965164,
				0.05220000445842743,
				-0.007000000216066837
			],
			"type":"VEC3"
		},
		{
			"bufferView":6,
			"componentType":5126,
			"count":96,
			"type":"VEC3"
		},
		{
			"bufferView":7,
			"componentType":5123,
			"count":168,
			"type":"SCALAR"
		}
	],
	"bufferViews":[
		{
			"buffer":0,
			"byteLength":1152,
			"byteOffset":0,
			"target":34962
		},
		{
			"buffer":0,
			"byteLength":1728,
			"byteOffset":1152,
			"target":34962
		},
		{
			"buffer":0,
			"byteLength":1728,
			"byteOffset":2880,
			"target":34962
		},
		{
			"buffer":0,
			"byteLength":504,
			"byteOffset":4608,
			"target":34963
		},
		{
			"buffer":0,
			"byteLength":768,
			"byteOffset":5112,
			"target":34962
		},
		{
			"buffer":0,
			"byteLength":1152,
			"byteOffset":5880,
			"target":34962
		},
		{
			"buffer":0,
			"byteLength":1152,
			"byteOffset":7032,
			"target":34962
		},
		{
			"buffer":0,
			"byteLength":336,
			"byteOffset":8184,
			"target":34963
		}
	],
	"buffers":[
		{
			"byteLength":8520,
			"uri":"wrench.bin"
		}
	]
}
