{
	"asset":{
		"generator":"Khronos glTF Blender I/O v4.0.44",
		"version":"2.0"
	},
	"scene":0,
	"scenes":[
		{
			"name":"Scene",
			"nodes":[
				0
			]
		}
	],
	"nodes":[
		{
			"mesh":0,
			"name":"crude_oil_bucket"
		}
	],
	"materials":[
		{
			"doubleSided":true,
			"name":"crude_oil_bucket_metal",
			"pbrMetallicRoughness":{
				"baseColorFactor":[
					0.3499999940395355,
					0.3499999940395355,
					0.3499999940395355,
					1
				],
				"roughnessFactor":0.4000000059604645
			}
		},
		{
			"doubleSided":true,
			"name":"crude_oil_bucket_liquid_mat",
			"pbrMetallicRoughness":{
				"baseColorFactor":[
					0.10000000149011612,
					0.10000000149011612,
					0.07999999821186066,
					1
				],
				"metallicFactor":0.20000000298023224,
				"roughnessFactor":0.10000000149011612
			}
		}
	],
	"meshes":[
		{
			"name":"crude_oil_bucket_outer",
			"primitives":[
				{
					"attributes":{
						"POSITION":0,
						"NORMAL":1
					},
					"indices":2,
					"material":0
				},
				{
					"attributes":{
						"POSITION":3,
						"NORMAL":4
					},
					"indices":5,
					"material":1
				}
			]
		}
	],
	"accessors":[
		{
			"bufferView":0,
			"componentType":5126,
			"count":128,
			"max":[
				0.13858193159103394,
				0.1679999977350235,
				0.13858193159103394
			],
			"min":[
				-0.13858193159103394,
				-0.1679999977350235,
				-0.13858193159103394
			],
			"type":"VEC3"
		},
		{
			"bufferView":1,
			"componentType":5126,
			"count":128,
			"type":"VEC3"
		},
		{
			"bufferView":2,
			"componentType":5123,
			"count":204,
			"type":"SCALAR"
		},
		{
			"bufferView":3,
			"componentType":5126,
			"count":14,
			"max":[
				0.12507018446922302,
				0.041999995708465576,
				0.12507018446922302
			],
			"min":[
				-0.12507018446922302,
				0.041999995708465576,
				-0.12507018446922302
			],
			"type":"VEC3"
		},
		{
			"bufferView":4,
			"componentType":5126,
			"count":14,
			"type":"VEC3"
		},
		{
			"bufferView":5,
			"componentType":5123,
			"count":24,
			"type":"SCALAR"
		}
	],
	"bufferViews":[
		{
			"buffer":0,
			"byteLength":1536,
			"byteOffset":0,
			"target":34962
		},
		{
			"buffer":0,
			"byteLength":1536,
			"byteOffset":1536,
			"target":34962
		},
		{
			"buffer":0,
			"byteLength":408,
			"byteOffset":3072,
			"target":34963
		},
		{
			"buffer":0,
			"byteLength":168,
			"byteOffset":3480,
			"target":34962
		},
		{
			"buffer":0,
			"byteLength":168,
			"byteOffset":3648,
			"target":34962
		},
		{
			"buffer":0,
			"byteLength":48,
			"byteOffset":3816,
			"target":34963
		}
	],
	"buffers":[
		{
			"byteLength":3864,
			"uri":"crude_oil_bucket.bin"
		}
	]
}
