{
	"asset":{
		"generator":"Khronos glTF Blender I/O v4.0.44",
		"version":"2.0"
	},
	"scene":0,
	"scenes":[
		{
			"name":"Scene",
			"nodes":[
				0
			]
		}
	],
	"nodes":[
		{
			"mesh":0,
			"name":"nickel_ingot"
		}
	],
	"materials":[
		{
			"doubleSided":true,
			"name":"nickel_ingot_mat",
			"pbrMetallicRoughness":{
				"baseColorFactor":[
					0.5799999833106995,
					0.5799999833106995,
					0.5799999833106995,
					1
				],
				"roughnessFactor":0.4000000059604645
			}
		}
	],
	"meshes":[
		{
			"name":"nickel_ingot",
			"primitives":[
				{
					"attributes":{
						"POSITION":0,
						"NORMAL":1
					},
					"indices":2,
					"material":0
				}
			]
		}
	],
	"accessors":[
		{
			"bufferView":0,
			"componentType":5126,
			"count":24,
			"max":[
				0.17499999701976776,
				0.03999999910593033,
				0.10000000149011612
			],
			"min":[
				-0.17499999701976776,
				-0.03999999910593033,
				-0.10000000149011612
			],
			"type":"VEC3"
		},
		{
			"bufferView":1,
			"componentType":5126,
			"count":24,
			"type":"VEC3"
		},
		{
			"bufferView":2,
			"componentType":5123,
			"count":36,
			"type":"SCALAR"
		}
	],
	"bufferViews":[
		{
			"buffer":0,
			"byteLength":288,
			"byteOffset":0,
			"target":34962
		},
		{
			"buffer":0,
			"byteLength":288,
			"byteOffset":288,
			"target":34962
		},
		{
			"buffer":0,
			"byteLength":72,
			"byteOffset":576,
			"target":34963
		}
	],
	"buffers":[
		{
			"byteLength":648,
			"uri":"nickel_ingot.bin"
		}
	]
}
