{
	"asset":{
		"generator":"Khronos glTF Blender I/O v4.0.44",
		"version":"2.0"
	},
	"scene":0,
	"scenes":[
		{
			"name":"Scene",
			"nodes":[
				0
			]
		}
	],
	"nodes":[
		{
			"mesh":0,
			"name":"CreatureWorker",
			"translation":[
				0,
				0.25,
				0
			]
		}
	],
	"materials":[
		{
			"doubleSided":true,
			"name":"Body",
			"pbrMetallicRoughness":{
				"baseColorFactor":[
					0.4000000059604645,
					0.6000000238418579,
					0.800000011920929,
					1
				],
				"metallicFactor":0,
				"roughnessFactor":0.699999988079071
			}
		},
		{
			"doubleSided":true,
			"name":"Belly",
			"pbrMetallicRoughness":{
				"baseColorFactor":[
					0.8999999761581421,
					0.8500000238418579,
					0.699999988079071,
					1
				],
				"metallicFactor":0,
				"roughnessFactor":0.800000011920929
			}
		},
		{
			"doubleSided":true,
			"name":"Eye",
			"pbrMetallicRoughness":{
				"baseColorFactor":[
					0.10000000149011612,
					0.10000000149011612,
					0.10000000149011612,
					1
				],
				"metallicFactor":0,
				"roughnessFactor":0.30000001192092896
			}
		},
		{
			"doubleSided":true,
			"name":"Highlight",
			"pbrMetallicRoughness":{
				"metallicFactor":0,
				"roughnessFactor":0.20000000298023224
			}
		},
		{
			"doubleSided":true,
			"name":"Dark",
			"pbrMetallicRoughness":{
				"baseColorFactor":[
					0.20000000298023224,
					0.25,
					0.3499999940395355,
					1
				],
				"metallicFactor":0,
				"roughnessFactor":0.6000000238418579
			}
		}
	],
	"meshes":[
		{
			"name":"Body",
			"primitives":[
				{
					"attributes":{
						"POSITION":0,
						"NORMAL":1
					},
					"indices":2,
					"material":0
				},
				{
					"attributes":{
						"POSITION":3,
						"NORMAL":4
					},
					"indices":5,
					"material":1
				},
				{
					"attributes":{
						"POSITION":6,
						"NORMAL":7
					},
					"indices":8,
					"material":2
				},
				{
					"attributes":{
						"POSITION":9,
						"NORMAL":10
					},
					"indices":8,
					"material":3
				},
				{
					"attributes":{
						"POSITION":11,
						"NORMAL":12
					},
					"indices":13,
					"material":4
				}
			]
		}
	],
	"accessors":[
		{
			"bufferView":0,
			"componentType":5126,
			"count":432,
			"max":[
				0.27974238991737366,
				0.4661857783794403,
				0.27649593353271484
			],
			"min":[
				-0.27974238991737366,
				-0.25,
				-0.18477590382099152
			],
			"type":"VEC3"
		},
		{
			"bufferView":1,
			"componentType":5126,
			"count":432,
			"type":"VEC3"
		},
		{
			"bufferView":2,
			"componentType":5123,
			"count":756,
			"type":"SCALAR"
		},
		{
			"bufferView":3,
			"componentType":5126,
			"count":240,
			"max":[
				0.32619398832321167,
				0.44264623522758484,
				0.08194440603256226
			],
			"min":[
				-0.32619398832321167,
				-0.18648742139339447,
				-0.24194440245628357
			],
			"type":"VEC3"
		},
		{
			"bufferView":4,
			"componentType":5126,
			"count":240,
			"type":"VEC3"
		},
		{
			"bufferView":5,
			"componentType":5123,
			"count":420,
			"type":"SCALAR"
		},
		{
			"bufferView":6,
			"componentType":5126,
			"count":96,
			"max":[
				0.11695517599582672,
				0.336955189704895,
				-0.14000000059604645
			],
			"min":[
				-0.11695517599582672,
				0.2630448341369629,
				-0.1600000113248825
			],
			"type":"VEC3"
		},
		{
			"bufferView":7,
			"componentType":5126,
			"count":96,
			"type":"VEC3"
		},
		{
			"bufferView":8,
			"componentType":5123,
			"count":168,
			"type":"SCALAR"
		},
		{
			"bufferView":9,
			"componentType":5126,
			"count":96,
			"max":[
				0.10385819524526596,
				0.32385820150375366,
				-0.16500000655651093
			],
			"min":[
				-0.10385819524526596,
				0.2961418032646179,
				-0.17499999701976776
			],
			"type":"VEC3"
		},
		{
			"bufferView":10,
			"componentType":5126,
			"count":96,
			"type":"VEC3"
		},
		{
			"bufferView":11,
			"componentType":5126,
			"count":144,
			"max":[
				0.14000000059604645,
				0.2577163875102997,
				0.030000001192092896
			],
			"min":[
				-0.14000000059604645,
				-0.25,
				-0.18000000715255737
			],
			"type":"VEC3"
		},
		{
			"bufferView":12,
			"componentType":5126,
			"count":144,
			"type":"VEC3"
		},
		{
			"bufferView":13,
			"componentType":5123,
			"count":252,
			"type":"SCALAR"
		}
	],
	"bufferViews":[
		{
			"buffer":0,
			"byteLength":5184,
			"byteOffset":0,
			"target":34962
		},
		{
			"buffer":0,
			"byteLength":5184,
			"byteOffset":5184,
			"target":34962
		},
		{
			"buffer":0,
			"byteLength":1512,
			"byteOffset":10368,
			"target":34963
		},
		{
			"buffer":0,
			"byteLength":2880,
			"byteOffset":11880,
			"target":34962
		},
		{
			"buffer":0,
			"byteLength":2880,
			"byteOffset":14760,
			"target":34962
		},
		{
			"buffer":0,
			"byteLength":840,
			"byteOffset":17640,
			"target":34963
		},
		{
			"buffer":0,
			"byteLength":1152,
			"byteOffset":18480,
			"target":34962
		},
		{
			"buffer":0,
			"byteLength":1152,
			"byteOffset":19632,
			"target":34962
		},
		{
			"buffer":0,
			"byteLength":336,
			"byteOffset":20784,
			"target":34963
		},
		{
			"buffer":0,
			"byteLength":1152,
			"byteOffset":21120,
			"target":34962
		},
		{
			"buffer":0,
			"byteLength":1152,
			"byteOffset":22272,
			"target":34962
		},
		{
			"buffer":0,
			"byteLength":1728,
			"byteOffset":23424,
			"target":34962
		},
		{
			"buffer":0,
			"byteLength":1728,
			"byteOffset":25152,
			"target":34962
		},
		{
			"buffer":0,
			"byteLength":504,
			"byteOffset":26880,
			"target":34963
		}
	],
	"buffers":[
		{
			"byteLength":27384,
			"uri":"creature_worker.bin"
		}
	]
}
