{
	"asset":{
		"generator":"Khronos glTF Blender I/O v4.0.44",
		"version":"2.0"
	},
	"scene":0,
	"scenes":[
		{
			"name":"Scene",
			"nodes":[
				0
			]
		}
	],
	"nodes":[
		{
			"mesh":0,
			"name":"CreaturePen",
			"translation":[
				0,
				0.02500000037252903,
				0
			]
		}
	],
	"materials":[
		{
			"doubleSided":true,
			"name":"Grass",
			"pbrMetallicRoughness":{
				"baseColorFactor":[
					0.30000001192092896,
					0.5,
					0.20000000298023224,
					1
				],
				"metallicFactor":0,
				"roughnessFactor":0.8999999761581421
			}
		},
		{
			"doubleSided":true,
			"name":"Straw",
			"pbrMetallicRoughness":{
				"baseColorFactor":[
					0.800000011920929,
					0.699999988079071,
					0.4000000059604645,
					1
				],
				"metallicFactor":0,
				"roughnessFactor":0.8999999761581421
			}
		},
		{
			"doubleSided":true,
			"name":"Wood",
			"pbrMetallicRoughness":{
				"baseColorFactor":[
					0.550000011920929,
					0.4099999964237213,
					0.07999999821186066,
					1
				],
				"metallicFactor":0,
				"roughnessFactor":0.800000011920929
			}
		},
		{
			"doubleSided":true,
			"name":"Iron",
			"pbrMetallicRoughness":{
				"baseColorFactor":[
					0.28999999165534973,
					0.28999999165534973,
					0.28999999165534973,
					1
				],
				"roughnessFactor":0.5
			}
		},
		{
			"doubleSided":true,
			"name":"DarkSteel",
			"pbrMetallicRoughness":{
				"baseColorFactor":[
					0.18000000715255737,
					0.18000000715255737,
					0.18000000715255737,
					1
				],
				"roughnessFactor":0.6000000238418579
			}
		}
	],
	"meshes":[
		{
			"name":"Ground",
			"primitives":[
				{
					"attributes":{
						"POSITION":0,
						"NORMAL":1
					},
					"indices":2,
					"material":0
				},
				{
					"attributes":{
						"POSITION":3,
						"NORMAL":4
					},
					"indices":2,
					"material":1
				},
				{
					"attributes":{
						"POSITION":5,
						"NORMAL":6
					},
					"indices":7,
					"material":2
				},
				{
					"attributes":{
						"POSITION":8,
						"NORMAL":9
					},
					"indices":10,
					"material":3
				},
				{
					"attributes":{
						"POSITION":11,
						"NORMAL":12
					},
					"indices":2,
					"material":4
				}
			]
		}
	],
	"accessors":[
		{
			"bufferView":0,
			"componentType":5126,
			"count":48,
			"max":[
				0.949999988079071,
				0.02500000037252903,
				0.949999988079071
			],
			"min":[
				-0.949999988079071,
				-0.02500000037252903,
				-0.949999988079071
			],
			"type":"VEC3"
		},
		{
			"bufferView":1,
			"componentType":5126,
			"count":48,
			"type":"VEC3"
		},
		{
			"bufferView":2,
			"componentType":5123,
			"count":84,
			"type":"SCALAR"
		},
		{
			"bufferView":3,
			"componentType":5126,
			"count":48,
			"max":[
				0.6000000238418579,
				0.10500000417232513,
				0.6000000238418579
			],
			"min":[
				-0.6000000238418579,
				0.025000005960464478,
				-0.6000000238418579
			],
			"type":"VEC3"
		},
		{
			"bufferView":4,
			"componentType":5126,
			"count":48,
			"type":"VEC3"
		},
		{
			"bufferView":5,
			"componentType":5126,
			"count":816,
			"max":[
				0.949999988079071,
				0.7250000238418579,
				0.949999988079071
			],
			"min":[
				-0.949999988079071,
				0.025000005960464478,
				-0.949999988079071
			],
			"type":"VEC3"
		},
		{
			"bufferView":6,
			"componentType":5126,
			"count":816,
			"type":"VEC3"
		},
		{
			"bufferView":7,
			"componentType":5123,
			"count":1428,
			"type":"SCALAR"
		},
		{
			"bufferView":8,
			"componentType":5126,
			"count":144,
			"max":[
				0.7385819554328918,
				0.7250000238418579,
				-0.26141807436943054
			],
			"min":[
				-0.3400000035762787,
				0.024999991059303284,
				-0.9399999976158142
			],
			"type":"VEC3"
		},
		{
			"bufferView":9,
			"componentType":5126,
			"count":144,
			"type":"VEC3"
		},
		{
			"bufferView":10,
			"componentType":5123,
			"count":252,
			"type":"SCALAR"
		},
		{
			"bufferView":11,
			"componentType":5126,
			"count":48,
			"max":[
				0.25,
				0.574999988079071,
				-0.8950000405311584
			],
			"min":[
				-0.25,
				0.07499998807907104,
				-0.9449999928474426
			],
			"type":"VEC3"
		},
		{
			"bufferView":12,
			"componentType":5126,
			"count":48,
			"type":"VEC3"
		}
	],
	"bufferViews":[
		{
			"buffer":0,
			"byteLength":576,
			"byteOffset":0,
			"target":34962
		},
		{
			"buffer":0,
			"byteLength":576,
			"byteOffset":576,
			"target":34962
		},
		{
			"buffer":0,
			"byteLength":168,
			"byteOffset":1152,
			"target":34963
		},
		{
			"buffer":0,
			"byteLength":576,
			"byteOffset":1320,
			"target":34962
		},
		{
			"buffer":0,
			"byteLength":576,
			"byteOffset":1896,
			"target":34962
		},
		{
			"buffer":0,
			"byteLength":9792,
			"byteOffset":2472,
			"target":34962
		},
		{
			"buffer":0,
			"byteLength":9792,
			"byteOffset":12264,
			"target":34962
		},
		{
			"buffer":0,
			"byteLength":2856,
			"byteOffset":22056,
			"target":34963
		},
		{
			"buffer":0,
			"byteLength":1728,
			"byteOffset":24912,
			"target":34962
		},
		{
			"buffer":0,
			"byteLength":1728,
			"byteOffset":26640,
			"target":34962
		},
		{
			"buffer":0,
			"byteLength":504,
			"byteOffset":28368,
			"target":34963
		},
		{
			"buffer":0,
			"byteLength":576,
			"byteOffset":28872,
			"target":34962
		},
		{
			"buffer":0,
			"byteLength":576,
			"byteOffset":29448,
			"target":34962
		}
	],
	"buffers":[
		{
			"byteLength":30024,
			"uri":"creature_pen.bin"
		}
	]
}
