{
	"asset":{
		"generator":"Khronos glTF Blender I/O v4.0.44",
		"version":"2.0"
	},
	"scene":0,
	"scenes":[
		{
			"name":"Scene",
			"nodes":[
				0
			]
		}
	],
	"nodes":[
		{
			"mesh":0,
			"name":"TrainStation",
			"translation":[
				0,
				0.07500000298023224,
				0
			]
		}
	],
	"materials":[
		{
			"doubleSided":true,
			"name":"Concrete",
			"pbrMetallicRoughness":{
				"baseColorFactor":[
					0.5,
					0.5,
					0.5,
					1
				],
				"metallicFactor":0,
				"roughnessFactor":0.8999999761581421
			}
		},
		{
			"doubleSided":true,
			"name":"Brass",
			"pbrMetallicRoughness":{
				"baseColorFactor":[
					0.7900000214576721,
					0.6399999856948853,
					0.15000000596046448,
					1
				],
				"roughnessFactor":0.3499999940395355
			}
		},
		{
			"doubleSided":true,
			"name":"Iron",
			"pbrMetallicRoughness":{
				"baseColorFactor":[
					0.28999999165534973,
					0.28999999165534973,
					0.28999999165534973,
					1
				],
				"roughnessFactor":0.5
			}
		},
		{
			"doubleSided":true,
			"name":"Wood",
			"pbrMetallicRoughness":{
				"baseColorFactor":[
					0.550000011920929,
					0.4099999964237213,
					0.07999999821186066,
					1
				],
				"metallicFactor":0,
				"roughnessFactor":0.800000011920929
			}
		},
		{
			"doubleSided":true,
			"name":"DarkSteel",
			"pbrMetallicRoughness":{
				"baseColorFactor":[
					0.18000000715255737,
					0.18000000715255737,
					0.18000000715255737,
					1
				],
				"roughnessFactor":0.6000000238418579
			}
		},
		{
			"doubleSided":true,
			"name":"Glow",
			"pbrMetallicRoughness":{
				"baseColorFactor":[
					0.10000000149011612,
					0.800000011920929,
					0.30000001192092896,
					1
				],
				"metallicFactor":0,
				"roughnessFactor":0.10000000149011612
			}
		}
	],
	"meshes":[
		{
			"name":"Platform",
			"primitives":[
				{
					"attributes":{
						"POSITION":0,
						"NORMAL":1
					},
					"indices":2,
					"material":0
				},
				{
					"attributes":{
						"POSITION":3,
						"NORMAL":4
					},
					"indices":5,
					"material":1
				},
				{
					"attributes":{
						"POSITION":6,
						"NORMAL":7
					},
					"indices":8,
					"material":2
				},
				{
					"attributes":{
						"POSITION":9,
						"NORMAL":10
					},
					"indices":11,
					"material":3
				},
				{
					"attributes":{
						"POSITION":12,
						"NORMAL":13
					},
					"indices":14,
					"material":4
				},
				{
					"attributes":{
						"POSITION":15,
						"NORMAL":16
					},
					"indices":17,
					"material":5
				}
			]
		}
	],
	"accessors":[
		{
			"bufferView":0,
			"componentType":5126,
			"count":48,
			"max":[
				1.399999976158142,
				0.07500000298023224,
				0.8999999761581421
			],
			"min":[
				-1.399999976158142,
				-0.07500000298023224,
				-0.8999999761581421
			],
			"type":"VEC3"
		},
		{
			"bufferView":1,
			"componentType":5126,
			"count":48,
			"type":"VEC3"
		},
		{
			"bufferView":2,
			"componentType":5123,
			"count":84,
			"type":"SCALAR"
		},
		{
			"bufferView":3,
			"componentType":5126,
			"count":96,
			"max":[
				1.399999976158142,
				1.274999976158142,
				-0.2750000059604645
			],
			"min":[
				-1.399999976158142,
				0.07499999552965164,
				-0.9000000357627869
			],
			"type":"VEC3"
		},
		{
			"bufferView":4,
			"componentType":5126,
			"count":96,
			"type":"VEC3"
		},
		{
			"bufferView":5,
			"componentType":5123,
			"count":168,
			"type":"SCALAR"
		},
		{
			"bufferView":6,
			"componentType":5126,
			"count":384,
			"max":[
				1.5,
				1.3649998903274536,
				0.574999988079071
			],
			"min":[
				-1.5,
				-0.07500000298023224,
				-0.875
			],
			"type":"VEC3"
		},
		{
			"bufferView":7,
			"componentType":5126,
			"count":384,
			"type":"VEC3"
		},
		{
			"bufferView":8,
			"componentType":5123,
			"count":672,
			"type":"SCALAR"
		},
		{
			"bufferView":9,
			"componentType":5126,
			"count":576,
			"max":[
				1.399999976158142,
				0.5249999761581421,
				0.7250000238418579
			],
			"min":[
				-1.399999976158142,
				-0.07500000298023224,
				-0.6949999928474426
			],
			"type":"VEC3"
		},
		{
			"bufferView":10,
			"componentType":5126,
			"count":576,
			"type":"VEC3"
		},
		{
			"bufferView":11,
			"componentType":5123,
			"count":1008,
			"type":"SCALAR"
		},
		{
			"bufferView":12,
			"componentType":5126,
			"count":240,
			"max":[
				1.2000000476837158,
				1.3649998903274536,
				0.5400000214576721
			],
			"min":[
				-1.375,
				0.07500000298023224,
				-0.9000000357627869
			],
			"type":"VEC3"
		},
		{
			"bufferView":13,
			"componentType":5126,
			"count":240,
			"type":"VEC3"
		},
		{
			"bufferView":14,
			"componentType":5123,
			"count":420,
			"type":"SCALAR"
		},
		{
			"bufferView":15,
			"componentType":5126,
			"count":144,
			"max":[
				0.7739103436470032,
				1.2249999046325684,
				0.5600000023841858
			],
			"min":[
				-1.336955189704895,
				0.9380447864532471,
				-0.3739103674888611
			],
			"type":"VEC3"
		},
		{
			"bufferView":16,
			"componentType":5126,
			"count":144,
			"type":"VEC3"
		},
		{
			"bufferView":17,
			"componentType":5123,
			"count":252,
			"type":"SCALAR"
		}
	],
	"bufferViews":[
		{
			"buffer":0,
			"byteLength":576,
			"byteOffset":0,
			"target":34962
		},
		{
			"buffer":0,
			"byteLength":576,
			"byteOffset":576,
			"target":34962
		},
		{
			"buffer":0,
			"byteLength":168,
			"byteOffset":1152,
			"target":34963
		},
		{
			"buffer":0,
			"byteLength":1152,
			"byteOffset":1320,
			"target":34962
		},
		{
			"buffer":0,
			"byteLength":1152,
			"byteOffset":2472,
			"target":34962
		},
		{
			"buffer":0,
			"byteLength":336,
			"byteOffset":3624,
			"target":34963
		},
		{
			"buffer":0,
			"byteLength":4608,
			"byteOffset":3960,
			"target":34962
		},
		{
			"buffer":0,
			"byteLength":4608,
			"byteOffset":8568,
			"target":34962
		},
		{
			"buffer":0,
			"byteLength":1344,
			"byteOffset":13176,
			"target":34963
		},
		{
			"buffer":0,
			"byteLength":6912,
			"byteOffset":14520,
			"target":34962
		},
		{
			"buffer":0,
			"byteLength":6912,
			"byteOffset":21432,
			"target":34962
		},
		{
			"buffer":0,
			"byteLength":2016,
			"byteOffset":28344,
			"target":34963
		},
		{
			"buffer":0,
			"byteLength":2880,
			"byteOffset":30360,
			"target":34962
		},
		{
			"buffer":0,
			"byteLength":2880,
			"byteOffset":33240,
			"target":34962
		},
		{
			"buffer":0,
			"byteLength":840,
			"byteOffset":36120,
			"target":34963
		},
		{
			"buffer":0,
			"byteLength":1728,
			"byteOffset":36960,
			"target":34962
		},
		{
			"buffer":0,
			"byteLength":1728,
			"byteOffset":38688,
			"target":34962
		},
		{
			"buffer":0,
			"byteLength":504,
			"byteOffset":40416,
			"target":34963
		}
	],
	"buffers":[
		{
			"byteLength":40920,
			"uri":"train_station.bin"
		}
	]
}
