{
	"asset":{
		"generator":"Khronos glTF Blender I/O v4.0.44",
		"version":"2.0"
	},
	"scene":0,
	"scenes":[
		{
			"name":"Scene",
			"nodes":[
				0
			]
		}
	],
	"nodes":[
		{
			"mesh":0,
			"name":"BreedingStation",
			"translation":[
				0,
				0.05000000074505806,
				0
			]
		}
	],
	"materials":[
		{
			"doubleSided":true,
			"name":"DarkSteel",
			"pbrMetallicRoughness":{
				"baseColorFactor":[
					0.18000000715255737,
					0.18000000715255737,
					0.18000000715255737,
					1
				],
				"roughnessFactor":0.6000000238418579
			}
		},
		{
			"doubleSided":true,
			"name":"Pink",
			"pbrMetallicRoughness":{
				"baseColorFactor":[
					0.8999999761581421,
					0.5,
					0.6000000238418579,
					1
				],
				"metallicFactor":0,
				"roughnessFactor":0.5
			}
		},
		{
			"doubleSided":true,
			"name":"Heart",
			"pbrMetallicRoughness":{
				"baseColorFactor":[
					0.8999999761581421,
					0.20000000298023224,
					0.30000001192092896,
					1
				],
				"metallicFactor":0,
				"roughnessFactor":0.30000001192092896
			}
		},
		{
			"doubleSided":true,
			"name":"Iron",
			"pbrMetallicRoughness":{
				"baseColorFactor":[
					0.28999999165534973,
					0.28999999165534973,
					0.28999999165534973,
					1
				],
				"roughnessFactor":0.5
			}
		},
		{
			"doubleSided":true,
			"name":"Copper",
			"pbrMetallicRoughness":{
				"baseColorFactor":[
					0.7200000286102295,
					0.44999998807907104,
					0.20000000298023224,
					1
				],
				"roughnessFactor":0.4000000059604645
			}
		},
		{
			"doubleSided":true,
			"name":"Glow",
			"pbrMetallicRoughness":{
				"baseColorFactor":[
					1,
					0.4000000059604645,
					0.5,
					1
				],
				"metallicFactor":0,
				"roughnessFactor":0.10000000149011612
			}
		},
		{
			"doubleSided":true,
			"name":"Brass",
			"pbrMetallicRoughness":{
				"baseColorFactor":[
					0.7900000214576721,
					0.6399999856948853,
					0.15000000596046448,
					1
				],
				"roughnessFactor":0.3499999940395355
			}
		}
	],
	"meshes":[
		{
			"name":"Base",
			"primitives":[
				{
					"attributes":{
						"POSITION":0,
						"NORMAL":1
					},
					"indices":2,
					"material":0
				},
				{
					"attributes":{
						"POSITION":3,
						"NORMAL":4
					},
					"indices":5,
					"material":1
				},
				{
					"attributes":{
						"POSITION":6,
						"NORMAL":7
					},
					"indices":8,
					"material":2
				},
				{
					"attributes":{
						"POSITION":9,
						"NORMAL":10
					},
					"indices":11,
					"material":3
				},
				{
					"attributes":{
						"POSITION":12,
						"NORMAL":13
					},
					"indices":5,
					"material":4
				},
				{
					"attributes":{
						"POSITION":14,
						"NORMAL":15
					},
					"indices":8,
					"material":5
				},
				{
					"attributes":{
						"POSITION":16,
						"NORMAL":17
					},
					"indices":18,
					"material":6
				}
			]
		}
	],
	"accessors":[
		{
			"bufferView":0,
			"componentType":5126,
			"count":96,
			"max":[
				0.699999988079071,
				0.1461939811706543,
				0.7099999785423279
			],
			"min":[
				-0.699999988079071,
				-0.05000000074505806,
				-0.699999988079071
			],
			"type":"VEC3"
		},
		{
			"bufferView":1,
			"componentType":5126,
			"count":96,
			"type":"VEC3"
		},
		{
			"bufferView":2,
			"componentType":5123,
			"count":168,
			"type":"SCALAR"
		},
		{
			"bufferView":3,
			"componentType":5126,
			"count":96,
			"max":[
				0.4619397521018982,
				0.20000000298023224,
				0.4619397521018982
			],
			"min":[
				-0.4619397521018982,
				0.04999999701976776,
				-0.4619397521018982
			],
			"type":"VEC3"
		},
		{
			"bufferView":4,
			"componentType":5126,
			"count":96,
			"type":"VEC3"
		},
		{
			"bufferView":5,
			"componentType":5123,
			"count":168,
			"type":"SCALAR"
		},
		{
			"bufferView":6,
			"componentType":5126,
			"count":144,
			"max":[
				0.08543276786804199,
				0.22309699654579163,
				-0.49456724524497986
			],
			"min":[
				-0.10309698432683945,
				0.08000001311302185,
				-0.7400000095367432
			],
			"type":"VEC3"
		},
		{
			"bufferView":7,
			"componentType":5126,
			"count":144,
			"type":"VEC3"
		},
		{
			"bufferView":8,
			"componentType":5123,
			"count":252,
			"type":"SCALAR"
		},
		{
			"bufferView":9,
			"componentType":5126,
			"count":336,
			"max":[
				0.67391037940979,
				0.6000000238418579,
				0.6277164220809937
			],
			"min":[
				-0.67391037940979,
				0.044999998062849045,
				-0.7249999642372131
			],
			"type":"VEC3"
		},
		{
			"bufferView":10,
			"componentType":5126,
			"count":336,
			"type":"VEC3"
		},
		{
			"bufferView":11,
			"componentType":5123,
			"count":588,
			"type":"SCALAR"
		},
		{
			"bufferView":12,
			"componentType":5126,
			"count":96,
			"max":[
				0.7108655571937561,
				0.699999988079071,
				0.11086554080247879
			],
			"min":[
				-0.7108655571937561,
				0.5999999642372131,
				-0.11086554080247879
			],
			"type":"VEC3"
		},
		{
			"bufferView":13,
			"componentType":5126,
			"count":96,
			"type":"VEC3"
		},
		{
			"bufferView":14,
			"componentType":5126,
			"count":144,
			"max":[
				0.636955201625824,
				0.7449999451637268,
				0.03695518150925636
			],
			"min":[
				-0.636955201625824,
				0.17690300941467285,
				-0.7400000095367432
			],
			"type":"VEC3"
		},
		{
			"bufferView":15,
			"componentType":5126,
			"count":144,
			"type":"VEC3"
		},
		{
			"bufferView":16,
			"componentType":5126,
			"count":96,
			"max":[
				0.32335785031318665,
				0.5499999523162842,
				0.32335785031318665
			],
			"min":[
				-0.32335785031318665,
				0.17690300941467285,
				-0.7400000095367432
			],
			"type":"VEC3"
		},
		{
			"bufferView":17,
			"componentType":5126,
			"count":96,
			"type":"VEC3"
		},
		{
			"bufferView":18,
			"componentType":5123,
			"count":168,
			"type":"SCALAR"
		}
	],
	"bufferViews":[
		{
			"buffer":0,
			"byteLength":1152,
			"byteOffset":0,
			"target":34962
		},
		{
			"buffer":0,
			"byteLength":1152,
			"byteOffset":1152,
			"target":34962
		},
		{
			"buffer":0,
			"byteLength":336,
			"byteOffset":2304,
			"target":34963
		},
		{
			"buffer":0,
			"byteLength":1152,
			"byteOffset":2640,
			"target":34962
		},
		{
			"buffer":0,
			"byteLength":1152,
			"byteOffset":3792,
			"target":34962
		},
		{
			"buffer":0,
			"byteLength":336,
			"byteOffset":4944,
			"target":34963
		},
		{
			"buffer":0,
			"byteLength":1728,
			"byteOffset":5280,
			"target":34962
		},
		{
			"buffer":0,
			"byteLength":1728,
			"byteOffset":7008,
			"target":34962
		},
		{
			"buffer":0,
			"byteLength":504,
			"byteOffset":8736,
			"target":34963
		},
		{
			"buffer":0,
			"byteLength":4032,
			"byteOffset":9240,
			"target":34962
		},
		{
			"buffer":0,
			"byteLength":4032,
			"byteOffset":13272,
			"target":34962
		},
		{
			"buffer":0,
			"byteLength":1176,
			"byteOffset":17304,
			"target":34963
		},
		{
			"buffer":0,
			"byteLength":1152,
			"byteOffset":18480,
			"target":34962
		},
		{
			"buffer":0,
			"byteLength":1152,
			"byteOffset":19632,
			"target":34962
		},
		{
			"buffer":0,
			"byteLength":1728,
			"byteOffset":20784,
			"target":34962
		},
		{
			"buffer":0,
			"byteLength":1728,
			"byteOffset":22512,
			"target":34962
		},
		{
			"buffer":0,
			"byteLength":1152,
			"byteOffset":24240,
			"target":34962
		},
		{
			"buffer":0,
			"byteLength":1152,
			"byteOffset":25392,
			"target":34962
		},
		{
			"buffer":0,
			"byteLength":336,
			"byteOffset":26544,
			"target":34963
		}
	],
	"buffers":[
		{
			"byteLength":26880,
			"uri":"breeding_station.bin"
		}
	]
}
