{
	"asset":{
		"generator":"Khronos glTF Blender I/O v4.0.44",
		"version":"2.0"
	},
	"scene":0,
	"scenes":[
		{
			"name":"Scene",
			"nodes":[
				0
			]
		}
	],
	"nodes":[
		{
			"mesh":0,
			"name":"CargoWagon",
			"translation":[
				0,
				0.15000000596046448,
				0
			]
		}
	],
	"materials":[
		{
			"doubleSided":true,
			"name":"DarkSteel",
			"pbrMetallicRoughness":{
				"baseColorFactor":[
					0.18000000715255737,
					0.18000000715255737,
					0.18000000715255737,
					1
				],
				"roughnessFactor":0.6000000238418579
			}
		},
		{
			"doubleSided":true,
			"name":"Wood",
			"pbrMetallicRoughness":{
				"baseColorFactor":[
					0.550000011920929,
					0.4099999964237213,
					0.07999999821186066,
					1
				],
				"metallicFactor":0,
				"roughnessFactor":0.800000011920929
			}
		},
		{
			"doubleSided":true,
			"name":"Iron",
			"pbrMetallicRoughness":{
				"baseColorFactor":[
					0.28999999165534973,
					0.28999999165534973,
					0.28999999165534973,
					1
				],
				"roughnessFactor":0.5
			}
		},
		{
			"doubleSided":true,
			"name":"Brass",
			"pbrMetallicRoughness":{
				"baseColorFactor":[
					0.7900000214576721,
					0.6399999856948853,
					0.15000000596046448,
					1
				],
				"roughnessFactor":0.3499999940395355
			}
		},
		{
			"doubleSided":true,
			"name":"Danger",
			"pbrMetallicRoughness":{
				"baseColorFactor":[
					0.800000011920929,
					0.20000000298023224,
					0.20000000298023224,
					1
				],
				"metallicFactor":0,
				"roughnessFactor":0.30000001192092896
			}
		}
	],
	"meshes":[
		{
			"name":"Frame",
			"primitives":[
				{
					"attributes":{
						"POSITION":0,
						"NORMAL":1
					},
					"indices":2,
					"material":0
				},
				{
					"attributes":{
						"POSITION":3,
						"NORMAL":4
					},
					"indices":5,
					"material":1
				},
				{
					"attributes":{
						"POSITION":6,
						"NORMAL":7
					},
					"indices":8,
					"material":2
				},
				{
					"attributes":{
						"POSITION":9,
						"NORMAL":10
					},
					"indices":11,
					"material":3
				},
				{
					"attributes":{
						"POSITION":12,
						"NORMAL":13
					},
					"indices":14,
					"material":4
				}
			]
		}
	],
	"accessors":[
		{
			"bufferView":0,
			"componentType":5126,
			"count":384,
			"max":[
				0.8999999761581421,
				0.5499999523162842,
				0.4399999976158142
			],
			"min":[
				-0.8999999761581421,
				-0.16086554527282715,
				-0.4399999976158142
			],
			"type":"VEC3"
		},
		{
			"bufferView":1,
			"componentType":5126,
			"count":384,
			"type":"VEC3"
		},
		{
			"bufferView":2,
			"componentType":5123,
			"count":672,
			"type":"SCALAR"
		},
		{
			"bufferView":3,
			"componentType":5126,
			"count":48,
			"max":[
				0.8500000238418579,
				0.09999998658895493,
				0.375
			],
			"min":[
				-0.8500000238418579,
				0.049999989569187164,
				-0.375
			],
			"type":"VEC3"
		},
		{
			"bufferView":4,
			"componentType":5126,
			"count":48,
			"type":"VEC3"
		},
		{
			"bufferView":5,
			"componentType":5123,
			"count":84,
			"type":"SCALAR"
		},
		{
			"bufferView":6,
			"componentType":5126,
			"count":336,
			"max":[
				0.9950000047683716,
				0.6000000238418579,
				0.35499998927116394
			],
			"min":[
				-0.9950000047683716,
				-0.09000000357627869,
				-0.35499998927116394
			],
			"type":"VEC3"
		},
		{
			"bufferView":7,
			"componentType":5126,
			"count":336,
			"type":"VEC3"
		},
		{
			"bufferView":8,
			"componentType":5123,
			"count":588,
			"type":"SCALAR"
		},
		{
			"bufferView":9,
			"componentType":5126,
			"count":288,
			"max":[
				0.75,
				0.6599999666213989,
				0.4700000286102295
			],
			"min":[
				-0.75,
				-0.08695518970489502,
				-0.4700000286102295
			],
			"type":"VEC3"
		},
		{
			"bufferView":10,
			"componentType":5126,
			"count":288,
			"type":"VEC3"
		},
		{
			"bufferView":11,
			"componentType":5123,
			"count":504,
			"type":"SCALAR"
		},
		{
			"bufferView":12,
			"componentType":5126,
			"count":48,
			"max":[
				-0.75,
				0.6277164220809937,
				0.027716385200619698
			],
			"min":[
				-0.7699999809265137,
				0.5722836256027222,
				-0.027716385200619698
			],
			"type":"VEC3"
		},
		{
			"bufferView":13,
			"componentType":5126,
			"count":48,
			"type":"VEC3"
		},
		{
			"bufferView":14,
			"componentType":5123,
			"count":84,
			"type":"SCALAR"
		}
	],
	"bufferViews":[
		{
			"buffer":0,
			"byteLength":4608,
			"byteOffset":0,
			"target":34962
		},
		{
			"buffer":0,
			"byteLength":4608,
			"byteOffset":4608,
			"target":34962
		},
		{
			"buffer":0,
			"byteLength":1344,
			"byteOffset":9216,
			"target":34963
		},
		{
			"buffer":0,
			"byteLength":576,
			"byteOffset":10560,
			"target":34962
		},
		{
			"buffer":0,
			"byteLength":576,
			"byteOffset":11136,
			"target":34962
		},
		{
			"buffer":0,
			"byteLength":168,
			"byteOffset":11712,
			"target":34963
		},
		{
			"buffer":0,
			"byteLength":4032,
			"byteOffset":11880,
			"target":34962
		},
		{
			"buffer":0,
			"byteLength":4032,
			"byteOffset":15912,
			"target":34962
		},
		{
			"buffer":0,
			"byteLength":1176,
			"byteOffset":19944,
			"target":34963
		},
		{
			"buffer":0,
			"byteLength":3456,
			"byteOffset":21120,
			"target":34962
		},
		{
			"buffer":0,
			"byteLength":3456,
			"byteOffset":24576,
			"target":34962
		},
		{
			"buffer":0,
			"byteLength":1008,
			"byteOffset":28032,
			"target":34963
		},
		{
			"buffer":0,
			"byteLength":576,
			"byteOffset":29040,
			"target":34962
		},
		{
			"buffer":0,
			"byteLength":576,
			"byteOffset":29616,
			"target":34962
		},
		{
			"buffer":0,
			"byteLength":168,
			"byteOffset":30192,
			"target":34963
		}
	],
	"buffers":[
		{
			"byteLength":30360,
			"uri":"cargo_wagon.bin"
		}
	]
}
