{
	"asset":{
		"generator":"Khronos glTF Blender I/O v4.0.44",
		"version":"2.0"
	},
	"scene":0,
	"scenes":[
		{
			"name":"Scene",
			"nodes":[
				0
			]
		}
	],
	"nodes":[
		{
			"mesh":0,
			"name":"CoalGenerator",
			"translation":[
				0,
				0.05000000074505806,
				0
			]
		}
	],
	"materials":[
		{
			"doubleSided":true,
			"name":"DarkSteel",
			"pbrMetallicRoughness":{
				"baseColorFactor":[
					0.18000000715255737,
					0.18000000715255737,
					0.18000000715255737,
					1
				],
				"roughnessFactor":0.6000000238418579
			}
		},
		{
			"doubleSided":true,
			"name":"Iron",
			"pbrMetallicRoughness":{
				"baseColorFactor":[
					0.28999999165534973,
					0.28999999165534973,
					0.28999999165534973,
					1
				],
				"roughnessFactor":0.5
			}
		},
		{
			"doubleSided":true,
			"name":"Brass",
			"pbrMetallicRoughness":{
				"baseColorFactor":[
					0.7900000214576721,
					0.6399999856948853,
					0.15000000596046448,
					1
				],
				"roughnessFactor":0.3499999940395355
			}
		},
		{
			"doubleSided":true,
			"name":"Danger",
			"pbrMetallicRoughness":{
				"baseColorFactor":[
					0.800000011920929,
					0.20000000298023224,
					0.20000000298023224,
					1
				],
				"metallicFactor":0,
				"roughnessFactor":0.30000001192092896
			}
		},
		{
			"doubleSided":true,
			"name":"Copper",
			"pbrMetallicRoughness":{
				"baseColorFactor":[
					0.7200000286102295,
					0.44999998807907104,
					0.20000000298023224,
					1
				],
				"roughnessFactor":0.4000000059604645
			}
		},
		{
			"doubleSided":true,
			"name":"Warning",
			"pbrMetallicRoughness":{
				"baseColorFactor":[
					0.800000011920929,
					0.6499999761581421,
					0.20000000298023224,
					1
				],
				"metallicFactor":0,
				"roughnessFactor":0.30000001192092896
			}
		}
	],
	"meshes":[
		{
			"name":"Base",
			"primitives":[
				{
					"attributes":{
						"POSITION":0,
						"NORMAL":1
					},
					"indices":2,
					"material":0
				},
				{
					"attributes":{
						"POSITION":3,
						"NORMAL":4
					},
					"indices":5,
					"material":1
				},
				{
					"attributes":{
						"POSITION":6,
						"NORMAL":7
					},
					"indices":8,
					"material":2
				},
				{
					"attributes":{
						"POSITION":9,
						"NORMAL":10
					},
					"indices":11,
					"material":3
				},
				{
					"attributes":{
						"POSITION":12,
						"NORMAL":13
					},
					"indices":14,
					"material":4
				},
				{
					"attributes":{
						"POSITION":15,
						"NORMAL":16
					},
					"indices":17,
					"material":5
				}
			]
		}
	],
	"accessors":[
		{
			"bufferView":0,
			"componentType":5126,
			"count":528,
			"max":[
				0.4749999940395355,
				0.949999988079071,
				0.4749999940395355
			],
			"min":[
				-0.4749999940395355,
				-0.05000000074505806,
				-0.4749999940395355
			],
			"type":"VEC3"
		},
		{
			"bufferView":1,
			"componentType":5126,
			"count":528,
			"type":"VEC3"
		},
		{
			"bufferView":2,
			"componentType":5123,
			"count":924,
			"type":"SCALAR"
		},
		{
			"bufferView":3,
			"componentType":5126,
			"count":336,
			"max":[
				0.4277164041996002,
				0.9999999403953552,
				0.4277164041996002
			],
			"min":[
				-0.4277164041996002,
				0.044999998062849045,
				-0.4649999737739563
			],
			"type":"VEC3"
		},
		{
			"bufferView":4,
			"componentType":5126,
			"count":336,
			"type":"VEC3"
		},
		{
			"bufferView":5,
			"componentType":5123,
			"count":588,
			"type":"SCALAR"
		},
		{
			"bufferView":6,
			"componentType":5126,
			"count":96,
			"max":[
				0.125,
				0.7499999403953552,
				0.10000000149011612
			],
			"min":[
				-0.30000001192092896,
				0.125,
				-0.42500001192092896
			],
			"type":"VEC3"
		},
		{
			"bufferView":7,
			"componentType":5126,
			"count":96,
			"type":"VEC3"
		},
		{
			"bufferView":8,
			"componentType":5123,
			"count":168,
			"type":"SCALAR"
		},
		{
			"bufferView":9,
			"componentType":5126,
			"count":44,
			"max":[
				0.03999999910593033,
				0.1899999976158142,
				-0.4099999964237213
			],
			"min":[
				-0.03999999910593033,
				0.11000000685453415,
				-0.429999977350235
			],
			"type":"VEC3"
		},
		{
			"bufferView":10,
			"componentType":5126,
			"count":44,
			"type":"VEC3"
		},
		{
			"bufferView":11,
			"componentType":5123,
			"count":84,
			"type":"SCALAR"
		},
		{
			"bufferView":12,
			"componentType":5126,
			"count":48,
			"max":[
				0.07391036301851273,
				0.4739103317260742,
				0.5
			],
			"min":[
				-0.07391036301851273,
				0.32608962059020996,
				0.3999999761581421
			],
			"type":"VEC3"
		},
		{
			"bufferView":13,
			"componentType":5126,
			"count":48,
			"type":"VEC3"
		},
		{
			"bufferView":14,
			"componentType":5123,
			"count":84,
			"type":"SCALAR"
		},
		{
			"bufferView":15,
			"componentType":5126,
			"count":48,
			"max":[
				0.42500001192092896,
				0.44999998807907104,
				-0.4099999964237213
			],
			"min":[
				0.2749999761581421,
				0.34999996423721313,
				-0.429999977350235
			],
			"type":"VEC3"
		},
		{
			"bufferView":16,
			"componentType":5126,
			"count":48,
			"type":"VEC3"
		},
		{
			"bufferView":17,
			"componentType":5123,
			"count":84,
			"type":"SCALAR"
		}
	],
	"bufferViews":[
		{
			"buffer":0,
			"byteLength":6336,
			"byteOffset":0,
			"target":34962
		},
		{
			"buffer":0,
			"byteLength":6336,
			"byteOffset":6336,
			"target":34962
		},
		{
			"buffer":0,
			"byteLength":1848,
			"byteOffset":12672,
			"target":34963
		},
		{
			"buffer":0,
			"byteLength":4032,
			"byteOffset":14520,
			"target":34962
		},
		{
			"buffer":0,
			"byteLength":4032,
			"byteOffset":18552,
			"target":34962
		},
		{
			"buffer":0,
			"byteLength":1176,
			"byteOffset":22584,
			"target":34963
		},
		{
			"buffer":0,
			"byteLength":1152,
			"byteOffset":23760,
			"target":34962
		},
		{
			"buffer":0,
			"byteLength":1152,
			"byteOffset":24912,
			"target":34962
		},
		{
			"buffer":0,
			"byteLength":336,
			"byteOffset":26064,
			"target":34963
		},
		{
			"buffer":0,
			"byteLength":528,
			"byteOffset":26400,
			"target":34962
		},
		{
			"buffer":0,
			"byteLength":528,
			"byteOffset":26928,
			"target":34962
		},
		{
			"buffer":0,
			"byteLength":168,
			"byteOffset":27456,
			"target":34963
		},
		{
			"buffer":0,
			"byteLength":576,
			"byteOffset":27624,
			"target":34962
		},
		{
			"buffer":0,
			"byteLength":576,
			"byteOffset":28200,
			"target":34962
		},
		{
			"buffer":0,
			"byteLength":168,
			"byteOffset":28776,
			"target":34963
		},
		{
			"buffer":0,
			"byteLength":576,
			"byteOffset":28944,
			"target":34962
		},
		{
			"buffer":0,
			"byteLength":576,
			"byteOffset":29520,
			"target":34962
		},
		{
			"buffer":0,
			"byteLength":168,
			"byteOffset":30096,
			"target":34963
		}
	],
	"buffers":[
		{
			"byteLength":30264,
			"uri":"coal_generator.bin"
		}
	]
}
