{
	"asset":{
		"generator":"Khronos glTF Blender I/O v4.0.44",
		"version":"2.0"
	},
	"scene":0,
	"scenes":[
		{
			"name":"Scene",
			"nodes":[
				0
			]
		}
	],
	"nodes":[
		{
			"mesh":0,
			"name":"ColorRouter",
			"translation":[
				0,
				0.05000000074505806,
				0
			]
		}
	],
	"materials":[
		{
			"doubleSided":true,
			"name":"DarkSteel",
			"pbrMetallicRoughness":{
				"baseColorFactor":[
					0.18000000715255737,
					0.18000000715255737,
					0.18000000715255737,
					1
				],
				"roughnessFactor":0.6000000238418579
			}
		},
		{
			"doubleSided":true,
			"name":"Iron",
			"pbrMetallicRoughness":{
				"baseColorFactor":[
					0.28999999165534973,
					0.28999999165534973,
					0.28999999165534973,
					1
				],
				"roughnessFactor":0.5
			}
		},
		{
			"doubleSided":true,
			"name":"Brass",
			"pbrMetallicRoughness":{
				"baseColorFactor":[
					0.7900000214576721,
					0.6399999856948853,
					0.15000000596046448,
					1
				],
				"roughnessFactor":0.3499999940395355
			}
		},
		{
			"doubleSided":true,
			"name":"Red",
			"pbrMetallicRoughness":{
				"baseColorFactor":[
					0.800000011920929,
					0.15000000596046448,
					0.15000000596046448,
					1
				],
				"metallicFactor":0,
				"roughnessFactor":0.30000001192092896
			}
		},
		{
			"doubleSided":true,
			"name":"Green",
			"pbrMetallicRoughness":{
				"baseColorFactor":[
					0.15000000596046448,
					0.699999988079071,
					0.20000000298023224,
					1
				],
				"metallicFactor":0,
				"roughnessFactor":0.30000001192092896
			}
		},
		{
			"doubleSided":true,
			"name":"Blue",
			"pbrMetallicRoughness":{
				"baseColorFactor":[
					0.15000000596046448,
					0.30000001192092896,
					0.800000011920929,
					1
				],
				"metallicFactor":0,
				"roughnessFactor":0.30000001192092896
			}
		},
		{
			"doubleSided":true,
			"name":"Yellow",
			"pbrMetallicRoughness":{
				"baseColorFactor":[
					0.8999999761581421,
					0.800000011920929,
					0.10000000149011612,
					1
				],
				"metallicFactor":0,
				"roughnessFactor":0.30000001192092896
			}
		}
	],
	"meshes":[
		{
			"name":"Base",
			"primitives":[
				{
					"attributes":{
						"POSITION":0,
						"NORMAL":1
					},
					"indices":2,
					"material":0
				},
				{
					"attributes":{
						"POSITION":3,
						"NORMAL":4
					},
					"indices":5,
					"material":1
				},
				{
					"attributes":{
						"POSITION":6,
						"NORMAL":7
					},
					"indices":8,
					"material":2
				},
				{
					"attributes":{
						"POSITION":9,
						"NORMAL":10
					},
					"indices":11,
					"material":3
				},
				{
					"attributes":{
						"POSITION":12,
						"NORMAL":13
					},
					"indices":14,
					"material":4
				},
				{
					"attributes":{
						"POSITION":15,
						"NORMAL":16
					},
					"indices":14,
					"material":5
				},
				{
					"attributes":{
						"POSITION":17,
						"NORMAL":18
					},
					"indices":11,
					"material":6
				}
			]
		}
	],
	"accessors":[
		{
			"bufferView":0,
			"componentType":5126,
			"count":96,
			"max":[
				0.44999998807907104,
				0.44999998807907104,
				0.44999998807907104
			],
			"min":[
				-0.44999998807907104,
				-0.05000000074505806,
				-0.44999998807907104
			],
			"type":"VEC3"
		},
		{
			"bufferView":1,
			"componentType":5126,
			"count":96,
			"type":"VEC3"
		},
		{
			"bufferView":2,
			"componentType":5123,
			"count":168,
			"type":"SCALAR"
		},
		{
			"bufferView":3,
			"componentType":5126,
			"count":240,
			"max":[
				0.3730969727039337,
				0.4000000059604645,
				0.3730969727039337
			],
			"min":[
				-0.3730969727039337,
				0.044999998062849045,
				-0.3730969727039337
			],
			"type":"VEC3"
		},
		{
			"bufferView":4,
			"componentType":5126,
			"count":240,
			"type":"VEC3"
		},
		{
			"bufferView":5,
			"componentType":5123,
			"count":420,
			"type":"SCALAR"
		},
		{
			"bufferView":6,
			"componentType":5126,
			"count":144,
			"max":[
				0.2961939871311188,
				0.5099999904632568,
				0.4750000238418579
			],
			"min":[
				-0.11086554080247879,
				0.1391344666481018,
				-0.014999999664723873
			],
			"type":"VEC3"
		},
		{
			"bufferView":7,
			"componentType":5126,
			"count":144,
			"type":"VEC3"
		},
		{
			"bufferView":8,
			"componentType":5123,
			"count":252,
			"type":"SCALAR"
		},
		{
			"bufferView":9,
			"componentType":5126,
			"count":96,
			"max":[
				0.07391036301851273,
				0.47999995946884155,
				0.17543277144432068
			],
			"min":[
				-0.17543277144432068,
				0.17608964443206787,
				-0.45000001788139343
			],
			"type":"VEC3"
		},
		{
			"bufferView":10,
			"componentType":5126,
			"count":96,
			"type":"VEC3"
		},
		{
			"bufferView":11,
			"componentType":5123,
			"count":168,
			"type":"SCALAR"
		},
		{
			"bufferView":12,
			"componentType":5126,
			"count":96,
			"max":[
				0.45000001788139343,
				0.47999995946884155,
				0.17543277144432068
			],
			"min":[
				0.06456722319126129,
				0.17608964443206787,
				-0.07391036301851273
			],
			"type":"VEC3"
		},
		{
			"bufferView":13,
			"componentType":5126,
			"count":96,
			"type":"VEC3"
		},
		{
			"bufferView":14,
			"componentType":5123,
			"count":168,
			"type":"SCALAR"
		},
		{
			"bufferView":15,
			"componentType":5126,
			"count":96,
			"max":[
				-0.06456722319126129,
				0.47999995946884155,
				0.07391036301851273
			],
			"min":[
				-0.45000001788139343,
				0.17608964443206787,
				-0.17543277144432068
			],
			"type":"VEC3"
		},
		{
			"bufferView":16,
			"componentType":5126,
			"count":96,
			"type":"VEC3"
		},
		{
			"bufferView":17,
			"componentType":5126,
			"count":96,
			"max":[
				0.17543277144432068,
				0.47999995946884155,
				-0.06456722319126129
			],
			"min":[
				-0.07391036301851273,
				0.32608962059020996,
				-0.45000001788139343
			],
			"type":"VEC3"
		},
		{
			"bufferView":18,
			"componentType":5126,
			"count":96,
			"type":"VEC3"
		}
	],
	"bufferViews":[
		{
			"buffer":0,
			"byteLength":1152,
			"byteOffset":0,
			"target":34962
		},
		{
			"buffer":0,
			"byteLength":1152,
			"byteOffset":1152,
			"target":34962
		},
		{
			"buffer":0,
			"byteLength":336,
			"byteOffset":2304,
			"target":34963
		},
		{
			"buffer":0,
			"byteLength":2880,
			"byteOffset":2640,
			"target":34962
		},
		{
			"buffer":0,
			"byteLength":2880,
			"byteOffset":5520,
			"target":34962
		},
		{
			"buffer":0,
			"byteLength":840,
			"byteOffset":8400,
			"target":34963
		},
		{
			"buffer":0,
			"byteLength":1728,
			"byteOffset":9240,
			"target":34962
		},
		{
			"buffer":0,
			"byteLength":1728,
			"byteOffset":10968,
			"target":34962
		},
		{
			"buffer":0,
			"byteLength":504,
			"byteOffset":12696,
			"target":34963
		},
		{
			"buffer":0,
			"byteLength":1152,
			"byteOffset":13200,
			"target":34962
		},
		{
			"buffer":0,
			"byteLength":1152,
			"byteOffset":14352,
			"target":34962
		},
		{
			"buffer":0,
			"byteLength":336,
			"byteOffset":15504,
			"target":34963
		},
		{
			"buffer":0,
			"byteLength":1152,
			"byteOffset":15840,
			"target":34962
		},
		{
			"buffer":0,
			"byteLength":1152,
			"byteOffset":16992,
			"target":34962
		},
		{
			"buffer":0,
			"byteLength":336,
			"byteOffset":18144,
			"target":34963
		},
		{
			"buffer":0,
			"byteLength":1152,
			"byteOffset":18480,
			"target":34962
		},
		{
			"buffer":0,
			"byteLength":1152,
			"byteOffset":19632,
			"target":34962
		},
		{
			"buffer":0,
			"byteLength":1152,
			"byteOffset":20784,
			"target":34962
		},
		{
			"buffer":0,
			"byteLength":1152,
			"byteOffset":21936,
			"target":34962
		}
	],
	"buffers":[
		{
			"byteLength":23088,
			"uri":"color_router.bin"
		}
	]
}
