{
	"asset":{
		"generator":"Khronos glTF Blender I/O v4.0.44",
		"version":"2.0"
	},
	"scene":0,
	"scenes":[
		{
			"name":"Scene",
			"nodes":[
				0
			]
		}
	],
	"nodes":[
		{
			"mesh":0,
			"name":"CreatureFeeder",
			"translation":[
				0,
				0.05000000074505806,
				0
			]
		}
	],
	"materials":[
		{
			"doubleSided":true,
			"name":"DarkSteel",
			"pbrMetallicRoughness":{
				"baseColorFactor":[
					0.18000000715255737,
					0.18000000715255737,
					0.18000000715255737,
					1
				],
				"roughnessFactor":0.6000000238418579
			}
		},
		{
			"doubleSided":true,
			"name":"Iron",
			"pbrMetallicRoughness":{
				"baseColorFactor":[
					0.28999999165534973,
					0.28999999165534973,
					0.28999999165534973,
					1
				],
				"roughnessFactor":0.5
			}
		},
		{
			"doubleSided":true,
			"name":"Brass",
			"pbrMetallicRoughness":{
				"baseColorFactor":[
					0.7900000214576721,
					0.6399999856948853,
					0.15000000596046448,
					1
				],
				"roughnessFactor":0.3499999940395355
			}
		},
		{
			"doubleSided":true,
			"name":"Food",
			"pbrMetallicRoughness":{
				"baseColorFactor":[
					0.6000000238418579,
					0.4000000059604645,
					0.20000000298023224,
					1
				],
				"metallicFactor":0,
				"roughnessFactor":0.800000011920929
			}
		},
		{
			"doubleSided":true,
			"name":"Copper",
			"pbrMetallicRoughness":{
				"baseColorFactor":[
					0.7200000286102295,
					0.44999998807907104,
					0.20000000298023224,
					1
				],
				"roughnessFactor":0.4000000059604645
			}
		},
		{
			"doubleSided":true,
			"name":"Glow",
			"pbrMetallicRoughness":{
				"baseColorFactor":[
					0.20000000298023224,
					0.800000011920929,
					0.30000001192092896,
					1
				],
				"metallicFactor":0,
				"roughnessFactor":0.10000000149011612
			}
		}
	],
	"meshes":[
		{
			"name":"Base",
			"primitives":[
				{
					"attributes":{
						"POSITION":0,
						"NORMAL":1
					},
					"indices":2,
					"material":0
				},
				{
					"attributes":{
						"POSITION":3,
						"NORMAL":4
					},
					"indices":5,
					"material":1
				},
				{
					"attributes":{
						"POSITION":6,
						"NORMAL":7
					},
					"indices":8,
					"material":2
				},
				{
					"attributes":{
						"POSITION":9,
						"NORMAL":10
					},
					"indices":11,
					"material":3
				},
				{
					"attributes":{
						"POSITION":12,
						"NORMAL":13
					},
					"indices":14,
					"material":4
				},
				{
					"attributes":{
						"POSITION":15,
						"NORMAL":16
					},
					"indices":17,
					"material":5
				}
			]
		}
	],
	"accessors":[
		{
			"bufferView":0,
			"componentType":5126,
			"count":144,
			"max":[
				0.44999998807907104,
				0.7749999761581421,
				0.44999998807907104
			],
			"min":[
				-0.44999998807907104,
				-0.05000000074505806,
				-0.44999998807907104
			],
			"type":"VEC3"
		},
		{
			"bufferView":1,
			"componentType":5126,
			"count":144,
			"type":"VEC3"
		},
		{
			"bufferView":2,
			"componentType":5123,
			"count":252,
			"type":"SCALAR"
		},
		{
			"bufferView":3,
			"componentType":5126,
			"count":336,
			"max":[
				0.3730969727039337,
				0.8199999928474426,
				0.3730969727039337
			],
			"min":[
				-0.3750000298023224,
				0.044999998062849045,
				-0.3730969727039337
			],
			"type":"VEC3"
		},
		{
			"bufferView":4,
			"componentType":5126,
			"count":336,
			"type":"VEC3"
		},
		{
			"bufferView":5,
			"componentType":5123,
			"count":588,
			"type":"SCALAR"
		},
		{
			"bufferView":6,
			"componentType":5126,
			"count":144,
			"max":[
				0.336955189704895,
				0.7300000190734863,
				0.32335785031318665
			],
			"min":[
				-0.32335785031318665,
				0.05000000819563866,
				-0.5809698700904846
			],
			"type":"VEC3"
		},
		{
			"bufferView":7,
			"componentType":5126,
			"count":144,
			"type":"VEC3"
		},
		{
			"bufferView":8,
			"componentType":5123,
			"count":252,
			"type":"SCALAR"
		},
		{
			"bufferView":9,
			"componentType":5126,
			"count":48,
			"max":[
				0.16629831492900848,
				0.14500001072883606,
				-0.18370167911052704
			],
			"min":[
				-0.16629831492900848,
				0.0950000062584877,
				-0.5162982940673828
			],
			"type":"VEC3"
		},
		{
			"bufferView":10,
			"componentType":5126,
			"count":48,
			"type":"VEC3"
		},
		{
			"bufferView":11,
			"componentType":5123,
			"count":84,
			"type":"SCALAR"
		},
		{
			"bufferView":12,
			"componentType":5126,
			"count":48,
			"max":[
				0.055432770401239395,
				0.3268533945083618,
				-0.021710112690925598
			],
			"min":[
				-0.055432770401239395,
				0.07314662635326385,
				-0.27828991413116455
			],
			"type":"VEC3"
		},
		{
			"bufferView":13,
			"componentType":5126,
			"count":48,
			"type":"VEC3"
		},
		{
			"bufferView":14,
			"componentType":5123,
			"count":84,
			"type":"SCALAR"
		},
		{
			"bufferView":15,
			"componentType":5126,
			"count":48,
			"max":[
				0.429999977350235,
				0.2730969786643982,
				0.02309698797762394
			],
			"min":[
				0.4099999964237213,
				0.2269030064344406,
				-0.02309698797762394
			],
			"type":"VEC3"
		},
		{
			"bufferView":16,
			"componentType":5126,
			"count":48,
			"type":"VEC3"
		},
		{
			"bufferView":17,
			"componentType":5123,
			"count":84,
			"type":"SCALAR"
		}
	],
	"bufferViews":[
		{
			"buffer":0,
			"byteLength":1728,
			"byteOffset":0,
			"target":34962
		},
		{
			"buffer":0,
			"byteLength":1728,
			"byteOffset":1728,
			"target":34962
		},
		{
			"buffer":0,
			"byteLength":504,
			"byteOffset":3456,
			"target":34963
		},
		{
			"buffer":0,
			"byteLength":4032,
			"byteOffset":3960,
			"target":34962
		},
		{
			"buffer":0,
			"byteLength":4032,
			"byteOffset":7992,
			"target":34962
		},
		{
			"buffer":0,
			"byteLength":1176,
			"byteOffset":12024,
			"target":34963
		},
		{
			"buffer":0,
			"byteLength":1728,
			"byteOffset":13200,
			"target":34962
		},
		{
			"buffer":0,
			"byteLength":1728,
			"byteOffset":14928,
			"target":34962
		},
		{
			"buffer":0,
			"byteLength":504,
			"byteOffset":16656,
			"target":34963
		},
		{
			"buffer":0,
			"byteLength":576,
			"byteOffset":17160,
			"target":34962
		},
		{
			"buffer":0,
			"byteLength":576,
			"byteOffset":17736,
			"target":34962
		},
		{
			"buffer":0,
			"byteLength":168,
			"byteOffset":18312,
			"target":34963
		},
		{
			"buffer":0,
			"byteLength":576,
			"byteOffset":18480,
			"target":34962
		},
		{
			"buffer":0,
			"byteLength":576,
			"byteOffset":19056,
			"target":34962
		},
		{
			"buffer":0,
			"byteLength":168,
			"byteOffset":19632,
			"target":34963
		},
		{
			"buffer":0,
			"byteLength":576,
			"byteOffset":19800,
			"target":34962
		},
		{
			"buffer":0,
			"byteLength":576,
			"byteOffset":20376,
			"target":34962
		},
		{
			"buffer":0,
			"byteLength":168,
			"byteOffset":20952,
			"target":34963
		}
	],
	"buffers":[
		{
			"byteLength":21120,
			"uri":"creature_feeder.bin"
		}
	]
}
