{
	"asset":{
		"generator":"Khronos glTF Blender I/O v4.0.44",
		"version":"2.0"
	},
	"scene":0,
	"scenes":[
		{
			"name":"Scene",
			"nodes":[
				0
			]
		}
	],
	"nodes":[
		{
			"mesh":0,
			"name":"CreatureTransport",
			"translation":[
				0,
				0.1599999964237213,
				0
			]
		}
	],
	"materials":[
		{
			"doubleSided":true,
			"name":"DarkSteel",
			"pbrMetallicRoughness":{
				"baseColorFactor":[
					0.18000000715255737,
					0.18000000715255737,
					0.18000000715255737,
					1
				],
				"roughnessFactor":0.6000000238418579
			}
		},
		{
			"doubleSided":true,
			"name":"Iron",
			"pbrMetallicRoughness":{
				"baseColorFactor":[
					0.28999999165534973,
					0.28999999165534973,
					0.28999999165534973,
					1
				],
				"roughnessFactor":0.5
			}
		},
		{
			"doubleSided":true,
			"name":"Glass",
			"pbrMetallicRoughness":{
				"baseColorFactor":[
					0.6000000238418579,
					0.699999988079071,
					0.800000011920929,
					1
				],
				"metallicFactor":0,
				"roughnessFactor":0.20000000298023224
			}
		},
		{
			"doubleSided":true,
			"name":"Brass",
			"pbrMetallicRoughness":{
				"baseColorFactor":[
					0.7900000214576721,
					0.6399999856948853,
					0.15000000596046448,
					1
				],
				"roughnessFactor":0.3499999940395355
			}
		},
		{
			"doubleSided":true,
			"name":"Warning",
			"pbrMetallicRoughness":{
				"baseColorFactor":[
					0.800000011920929,
					0.6499999761581421,
					0.20000000298023224,
					1
				],
				"metallicFactor":0,
				"roughnessFactor":0.30000001192092896
			}
		},
		{
			"doubleSided":true,
			"name":"Danger",
			"pbrMetallicRoughness":{
				"baseColorFactor":[
					0.800000011920929,
					0.20000000298023224,
					0.20000000298023224,
					1
				],
				"metallicFactor":0,
				"roughnessFactor":0.30000001192092896
			}
		}
	],
	"meshes":[
		{
			"name":"Frame",
			"primitives":[
				{
					"attributes":{
						"POSITION":0,
						"NORMAL":1
					},
					"indices":2,
					"material":0
				},
				{
					"attributes":{
						"POSITION":3,
						"NORMAL":4
					},
					"indices":5,
					"material":1
				},
				{
					"attributes":{
						"POSITION":6,
						"NORMAL":7
					},
					"indices":8,
					"material":2
				},
				{
					"attributes":{
						"POSITION":9,
						"NORMAL":10
					},
					"indices":11,
					"material":3
				},
				{
					"attributes":{
						"POSITION":12,
						"NORMAL":13
					},
					"indices":14,
					"material":4
				},
				{
					"attributes":{
						"POSITION":15,
						"NORMAL":16
					},
					"indices":14,
					"material":5
				}
			]
		}
	],
	"accessors":[
		{
			"bufferView":0,
			"componentType":5126,
			"count":480,
			"max":[
				0.800000011920929,
				0.6349999904632568,
				0.3869551718235016
			],
			"min":[
				-0.800000011920929,
				-0.17086553573608398,
				-0.38499999046325684
			],
			"type":"VEC3"
		},
		{
			"bufferView":1,
			"componentType":5126,
			"count":480,
			"type":"VEC3"
		},
		{
			"bufferView":2,
			"componentType":5123,
			"count":840,
			"type":"SCALAR"
		},
		{
			"bufferView":3,
			"componentType":5126,
			"count":192,
			"max":[
				0.75,
				0.6150000095367432,
				0.32999998331069946
			],
			"min":[
				-0.75,
				0.0599999874830246,
				-0.32999998331069946
			],
			"type":"VEC3"
		},
		{
			"bufferView":4,
			"componentType":5126,
			"count":192,
			"type":"VEC3"
		},
		{
			"bufferView":5,
			"componentType":5123,
			"count":336,
			"type":"SCALAR"
		},
		{
			"bufferView":6,
			"componentType":5126,
			"count":144,
			"max":[
				-0.35500001907348633,
				0.4449999928474426,
				0.3400000035762787
			],
			"min":[
				-0.574999988079071,
				0.19499999284744263,
				-0.3400000035762787
			],
			"type":"VEC3"
		},
		{
			"bufferView":7,
			"componentType":5126,
			"count":144,
			"type":"VEC3"
		},
		{
			"bufferView":8,
			"componentType":5123,
			"count":252,
			"type":"SCALAR"
		},
		{
			"bufferView":9,
			"componentType":5126,
			"count":720,
			"max":[
				0.8400000333786011,
				0.5649999976158142,
				0.4124999940395355
			],
			"min":[
				-0.5369551777839661,
				-0.09695518016815186,
				-0.4124999940395355
			],
			"type":"VEC3"
		},
		{
			"bufferView":10,
			"componentType":5126,
			"count":720,
			"type":"VEC3"
		},
		{
			"bufferView":11,
			"componentType":5123,
			"count":1260,
			"type":"SCALAR"
		},
		{
			"bufferView":12,
			"componentType":5126,
			"count":96,
			"max":[
				-0.7549999952316284,
				0.2361939698457718,
				0.19619397819042206
			],
			"min":[
				-0.7849999666213989,
				0.14380602538585663,
				-0.19619397819042206
			],
			"type":"VEC3"
		},
		{
			"bufferView":13,
			"componentType":5126,
			"count":96,
			"type":"VEC3"
		},
		{
			"bufferView":14,
			"componentType":5123,
			"count":168,
			"type":"SCALAR"
		},
		{
			"bufferView":15,
			"componentType":5126,
			"count":96,
			"max":[
				0.8199999928474426,
				0.27695518732070923,
				0.2369551807641983
			],
			"min":[
				0.800000011920929,
				0.2030448317527771,
				-0.2369551807641983
			],
			"type":"VEC3"
		},
		{
			"bufferView":16,
			"componentType":5126,
			"count":96,
			"type":"VEC3"
		}
	],
	"bufferViews":[
		{
			"buffer":0,
			"byteLength":5760,
			"byteOffset":0,
			"target":34962
		},
		{
			"buffer":0,
			"byteLength":5760,
			"byteOffset":5760,
			"target":34962
		},
		{
			"buffer":0,
			"byteLength":1680,
			"byteOffset":11520,
			"target":34963
		},
		{
			"buffer":0,
			"byteLength":2304,
			"byteOffset":13200,
			"target":34962
		},
		{
			"buffer":0,
			"byteLength":2304,
			"byteOffset":15504,
			"target":34962
		},
		{
			"buffer":0,
			"byteLength":672,
			"byteOffset":17808,
			"target":34963
		},
		{
			"buffer":0,
			"byteLength":1728,
			"byteOffset":18480,
			"target":34962
		},
		{
			"buffer":0,
			"byteLength":1728,
			"byteOffset":20208,
			"target":34962
		},
		{
			"buffer":0,
			"byteLength":504,
			"byteOffset":21936,
			"target":34963
		},
		{
			"buffer":0,
			"byteLength":8640,
			"byteOffset":22440,
			"target":34962
		},
		{
			"buffer":0,
			"byteLength":8640,
			"byteOffset":31080,
			"target":34962
		},
		{
			"buffer":0,
			"byteLength":2520,
			"byteOffset":39720,
			"target":34963
		},
		{
			"buffer":0,
			"byteLength":1152,
			"byteOffset":42240,
			"target":34962
		},
		{
			"buffer":0,
			"byteLength":1152,
			"byteOffset":43392,
			"target":34962
		},
		{
			"buffer":0,
			"byteLength":336,
			"byteOffset":44544,
			"target":34963
		},
		{
			"buffer":0,
			"byteLength":1152,
			"byteOffset":44880,
			"target":34962
		},
		{
			"buffer":0,
			"byteLength":1152,
			"byteOffset":46032,
			"target":34962
		}
	],
	"buffers":[
		{
			"byteLength":47184,
			"uri":"creature_transport.bin"
		}
	]
}
