{
	"asset":{
		"generator":"Khronos glTF Blender I/O v4.0.44",
		"version":"2.0"
	},
	"scene":0,
	"scenes":[
		{
			"name":"Scene",
			"nodes":[
				0
			]
		}
	],
	"nodes":[
		{
			"mesh":0,
			"name":"FuelGenerator",
			"translation":[
				0,
				0.05000000074505806,
				0
			]
		}
	],
	"materials":[
		{
			"doubleSided":true,
			"name":"DarkSteel",
			"pbrMetallicRoughness":{
				"baseColorFactor":[
					0.18000000715255737,
					0.18000000715255737,
					0.18000000715255737,
					1
				],
				"roughnessFactor":0.6000000238418579
			}
		},
		{
			"doubleSided":true,
			"name":"Iron",
			"pbrMetallicRoughness":{
				"baseColorFactor":[
					0.28999999165534973,
					0.28999999165534973,
					0.28999999165534973,
					1
				],
				"roughnessFactor":0.5
			}
		},
		{
			"doubleSided":true,
			"name":"Brass",
			"pbrMetallicRoughness":{
				"baseColorFactor":[
					0.7900000214576721,
					0.6399999856948853,
					0.15000000596046448,
					1
				],
				"roughnessFactor":0.3499999940395355
			}
		},
		{
			"doubleSided":true,
			"name":"Copper",
			"pbrMetallicRoughness":{
				"baseColorFactor":[
					0.7200000286102295,
					0.44999998807907104,
					0.20000000298023224,
					1
				],
				"roughnessFactor":0.4000000059604645
			}
		},
		{
			"doubleSided":true,
			"name":"Power",
			"pbrMetallicRoughness":{
				"baseColorFactor":[
					0.20000000298023224,
					0.4000000059604645,
					0.800000011920929,
					1
				],
				"metallicFactor":0,
				"roughnessFactor":0.20000000298023224
			}
		},
		{
			"doubleSided":true,
			"name":"Warning",
			"pbrMetallicRoughness":{
				"baseColorFactor":[
					0.800000011920929,
					0.6499999761581421,
					0.20000000298023224,
					1
				],
				"metallicFactor":0,
				"roughnessFactor":0.30000001192092896
			}
		}
	],
	"meshes":[
		{
			"name":"Base",
			"primitives":[
				{
					"attributes":{
						"POSITION":0,
						"NORMAL":1
					},
					"indices":2,
					"material":0
				},
				{
					"attributes":{
						"POSITION":3,
						"NORMAL":4
					},
					"indices":5,
					"material":1
				},
				{
					"attributes":{
						"POSITION":6,
						"NORMAL":7
					},
					"indices":8,
					"material":2
				},
				{
					"attributes":{
						"POSITION":9,
						"NORMAL":10
					},
					"indices":11,
					"material":3
				},
				{
					"attributes":{
						"POSITION":12,
						"NORMAL":13
					},
					"indices":14,
					"material":4
				},
				{
					"attributes":{
						"POSITION":15,
						"NORMAL":16
					},
					"indices":14,
					"material":5
				}
			]
		}
	],
	"accessors":[
		{
			"bufferView":0,
			"componentType":5126,
			"count":240,
			"max":[
				0.4749999940395355,
				0.75,
				0.4749999940395355
			],
			"min":[
				-0.4749999940395355,
				-0.05000000074505806,
				-0.4899999797344208
			],
			"type":"VEC3"
		},
		{
			"bufferView":1,
			"componentType":5126,
			"count":240,
			"type":"VEC3"
		},
		{
			"bufferView":2,
			"componentType":5123,
			"count":420,
			"type":"SCALAR"
		},
		{
			"bufferView":3,
			"componentType":5126,
			"count":672,
			"max":[
				0.5423879623413086,
				0.7249999642372131,
				0.4277164041996002
			],
			"min":[
				-0.4423879384994507,
				0.02608964592218399,
				-0.5049999952316284
			],
			"type":"VEC3"
		},
		{
			"bufferView":4,
			"componentType":5126,
			"count":672,
			"type":"VEC3"
		},
		{
			"bufferView":5,
			"componentType":5123,
			"count":1176,
			"type":"SCALAR"
		},
		{
			"bufferView":6,
			"componentType":5126,
			"count":96,
			"max":[
				0.588581919670105,
				0.5900000333786011,
				0.13858193159103394
			],
			"min":[
				-0.375,
				0.04999998211860657,
				-0.4449999928474426
			],
			"type":"VEC3"
		},
		{
			"bufferView":7,
			"componentType":5126,
			"count":96,
			"type":"VEC3"
		},
		{
			"bufferView":8,
			"componentType":5123,
			"count":168,
			"type":"SCALAR"
		},
		{
			"bufferView":9,
			"componentType":5126,
			"count":96,
			"max":[
				0.4000000059604645,
				0.4777163863182068,
				0.5399999618530273
			],
			"min":[
				-0.09238795191049576,
				0.25761204957962036,
				-0.027716385200619698
			],
			"type":"VEC3"
		},
		{
			"bufferView":10,
			"componentType":5126,
			"count":96,
			"type":"VEC3"
		},
		{
			"bufferView":11,
			"componentType":5123,
			"count":168,
			"type":"SCALAR"
		},
		{
			"bufferView":12,
			"componentType":5126,
			"count":48,
			"max":[
				-0.27690303325653076,
				0.5530969500541687,
				-0.45000001788139343
			],
			"min":[
				-0.32309699058532715,
				0.5069029927253723,
				-0.4699999988079071
			],
			"type":"VEC3"
		},
		{
			"bufferView":13,
			"componentType":5126,
			"count":48,
			"type":"VEC3"
		},
		{
			"bufferView":14,
			"componentType":5123,
			"count":84,
			"type":"SCALAR"
		},
		{
			"bufferView":15,
			"componentType":5126,
			"count":48,
			"max":[
				-0.17690300941467285,
				0.5530969500541687,
				-0.45000001788139343
			],
			"min":[
				-0.22309699654579163,
				0.5069029927253723,
				-0.4699999988079071
			],
			"type":"VEC3"
		},
		{
			"bufferView":16,
			"componentType":5126,
			"count":48,
			"type":"VEC3"
		}
	],
	"bufferViews":[
		{
			"buffer":0,
			"byteLength":2880,
			"byteOffset":0,
			"target":34962
		},
		{
			"buffer":0,
			"byteLength":2880,
			"byteOffset":2880,
			"target":34962
		},
		{
			"buffer":0,
			"byteLength":840,
			"byteOffset":5760,
			"target":34963
		},
		{
			"buffer":0,
			"byteLength":8064,
			"byteOffset":6600,
			"target":34962
		},
		{
			"buffer":0,
			"byteLength":8064,
			"byteOffset":14664,
			"target":34962
		},
		{
			"buffer":0,
			"byteLength":2352,
			"byteOffset":22728,
			"target":34963
		},
		{
			"buffer":0,
			"byteLength":1152,
			"byteOffset":25080,
			"target":34962
		},
		{
			"buffer":0,
			"byteLength":1152,
			"byteOffset":26232,
			"target":34962
		},
		{
			"buffer":0,
			"byteLength":336,
			"byteOffset":27384,
			"target":34963
		},
		{
			"buffer":0,
			"byteLength":1152,
			"byteOffset":27720,
			"target":34962
		},
		{
			"buffer":0,
			"byteLength":1152,
			"byteOffset":28872,
			"target":34962
		},
		{
			"buffer":0,
			"byteLength":336,
			"byteOffset":30024,
			"target":34963
		},
		{
			"buffer":0,
			"byteLength":576,
			"byteOffset":30360,
			"target":34962
		},
		{
			"buffer":0,
			"byteLength":576,
			"byteOffset":30936,
			"target":34962
		},
		{
			"buffer":0,
			"byteLength":168,
			"byteOffset":31512,
			"target":34963
		},
		{
			"buffer":0,
			"byteLength":576,
			"byteOffset":31680,
			"target":34962
		},
		{
			"buffer":0,
			"byteLength":576,
			"byteOffset":32256,
			"target":34962
		}
	],
	"buffers":[
		{
			"byteLength":32832,
			"uri":"fuel_generator.bin"
		}
	]
}
