{
	"asset":{
		"generator":"Khronos glTF Blender I/O v4.0.44",
		"version":"2.0"
	},
	"scene":0,
	"scenes":[
		{
			"name":"Scene",
			"nodes":[
				0
			]
		}
	],
	"nodes":[
		{
			"mesh":0,
			"name":"NuclearReactor",
			"translation":[
				0,
				0.07500000298023224,
				0
			]
		}
	],
	"materials":[
		{
			"doubleSided":true,
			"name":"Concrete",
			"pbrMetallicRoughness":{
				"baseColorFactor":[
					0.5,
					0.5,
					0.5,
					1
				],
				"metallicFactor":0,
				"roughnessFactor":0.8999999761581421
			}
		},
		{
			"doubleSided":true,
			"name":"DarkSteel",
			"pbrMetallicRoughness":{
				"baseColorFactor":[
					0.18000000715255737,
					0.18000000715255737,
					0.18000000715255737,
					1
				],
				"roughnessFactor":0.6000000238418579
			}
		},
		{
			"doubleSided":true,
			"name":"Iron",
			"pbrMetallicRoughness":{
				"baseColorFactor":[
					0.28999999165534973,
					0.28999999165534973,
					0.28999999165534973,
					1
				],
				"roughnessFactor":0.5
			}
		},
		{
			"doubleSided":true,
			"name":"Glow",
			"pbrMetallicRoughness":{
				"baseColorFactor":[
					0.10000000149011612,
					0.800000011920929,
					0.30000001192092896,
					1
				],
				"metallicFactor":0,
				"roughnessFactor":0.10000000149011612
			}
		},
		{
			"doubleSided":true,
			"name":"Brass",
			"pbrMetallicRoughness":{
				"baseColorFactor":[
					0.7900000214576721,
					0.6399999856948853,
					0.15000000596046448,
					1
				],
				"roughnessFactor":0.3499999940395355
			}
		},
		{
			"doubleSided":true,
			"name":"Warning",
			"pbrMetallicRoughness":{
				"baseColorFactor":[
					0.800000011920929,
					0.6499999761581421,
					0.20000000298023224,
					1
				],
				"metallicFactor":0,
				"roughnessFactor":0.30000001192092896
			}
		},
		{
			"doubleSided":true,
			"name":"Danger",
			"pbrMetallicRoughness":{
				"baseColorFactor":[
					0.800000011920929,
					0.20000000298023224,
					0.20000000298023224,
					1
				],
				"metallicFactor":0,
				"roughnessFactor":0.30000001192092896
			}
		},
		{
			"doubleSided":true,
			"name":"Copper",
			"pbrMetallicRoughness":{
				"baseColorFactor":[
					0.7200000286102295,
					0.44999998807907104,
					0.20000000298023224,
					1
				],
				"roughnessFactor":0.4000000059604645
			}
		}
	],
	"meshes":[
		{
			"name":"Base",
			"primitives":[
				{
					"attributes":{
						"POSITION":0,
						"NORMAL":1
					},
					"indices":2,
					"material":0
				},
				{
					"attributes":{
						"POSITION":3,
						"NORMAL":4
					},
					"indices":5,
					"material":1
				},
				{
					"attributes":{
						"POSITION":6,
						"NORMAL":7
					},
					"indices":8,
					"material":2
				},
				{
					"attributes":{
						"POSITION":9,
						"NORMAL":10
					},
					"indices":11,
					"material":3
				},
				{
					"attributes":{
						"POSITION":12,
						"NORMAL":13
					},
					"indices":14,
					"material":4
				},
				{
					"attributes":{
						"POSITION":15,
						"NORMAL":16
					},
					"indices":17,
					"material":5
				},
				{
					"attributes":{
						"POSITION":18,
						"NORMAL":19
					},
					"indices":17,
					"material":6
				},
				{
					"attributes":{
						"POSITION":20,
						"NORMAL":21
					},
					"indices":22,
					"material":7
				}
			]
		}
	],
	"accessors":[
		{
			"bufferView":0,
			"componentType":5126,
			"count":48,
			"max":[
				0.949999988079071,
				0.07500000298023224,
				0.949999988079071
			],
			"min":[
				-0.949999988079071,
				-0.07500000298023224,
				-0.949999988079071
			],
			"type":"VEC3"
		},
		{
			"bufferView":1,
			"componentType":5126,
			"count":48,
			"type":"VEC3"
		},
		{
			"bufferView":2,
			"componentType":5123,
			"count":84,
			"type":"SCALAR"
		},
		{
			"bufferView":3,
			"componentType":5126,
			"count":288,
			"max":[
				0.9309698343276978,
				1.5749999284744263,
				0.9309698343276978
			],
			"min":[
				-0.9309698343276978,
				0.07499998807907104,
				-0.9309698343276978
			],
			"type":"VEC3"
		},
		{
			"bufferView":4,
			"componentType":5126,
			"count":288,
			"type":"VEC3"
		},
		{
			"bufferView":5,
			"componentType":5123,
			"count":504,
			"type":"SCALAR"
		},
		{
			"bufferView":6,
			"componentType":5126,
			"count":768,
			"max":[
				0.8999999761581421,
				1.0649999380111694,
				0.886955201625824
			],
			"min":[
				-0.886955201625824,
				0.07499998807907104,
				-0.886955201625824
			],
			"type":"VEC3"
		},
		{
			"bufferView":7,
			"componentType":5126,
			"count":768,
			"type":"VEC3"
		},
		{
			"bufferView":8,
			"componentType":5123,
			"count":1344,
			"type":"SCALAR"
		},
		{
			"bufferView":9,
			"componentType":5126,
			"count":96,
			"max":[
				0.5730969905853271,
				1.6249998807907104,
				0.13858193159103394
			],
			"min":[
				-0.13858193159103394,
				0.40190303325653076,
				-0.2199999988079071
			],
			"type":"VEC3"
		},
		{
			"bufferView":10,
			"componentType":5126,
			"count":96,
			"type":"VEC3"
		},
		{
			"bufferView":11,
			"componentType":5123,
			"count":168,
			"type":"SCALAR"
		},
		{
			"bufferView":12,
			"componentType":5126,
			"count":336,
			"max":[
				0.824999988079071,
				1.1549999713897705,
				0.8108655214309692
			],
			"min":[
				-0.949999988079071,
				0.20108959078788757,
				-0.8108655214309692
			],
			"type":"VEC3"
		},
		{
			"bufferView":13,
			"componentType":5126,
			"count":336,
			"type":"VEC3"
		},
		{
			"bufferView":14,
			"componentType":5123,
			"count":588,
			"type":"SCALAR"
		},
		{
			"bufferView":15,
			"componentType":5126,
			"count":96,
			"max":[
				0.9500000476837158,
				0.44809699058532715,
				-0.19999998807907104
			],
			"min":[
				0.6269029974937439,
				0.07499999552965164,
				-0.7300000190734863
			],
			"type":"VEC3"
		},
		{
			"bufferView":16,
			"componentType":5126,
			"count":96,
			"type":"VEC3"
		},
		{
			"bufferView":17,
			"componentType":5123,
			"count":168,
			"type":"SCALAR"
		},
		{
			"bufferView":18,
			"componentType":5126,
			"count":96,
			"max":[
				0.7730969786643982,
				0.44809699058532715,
				-0.19999998807907104
			],
			"min":[
				-0.9500000476837158,
				0.07499999552965164,
				-0.7300000190734863
			],
			"type":"VEC3"
		},
		{
			"bufferView":19,
			"componentType":5126,
			"count":96,
			"type":"VEC3"
		},
		{
			"bufferView":20,
			"componentType":5126,
			"count":48,
			"max":[
				0.13858193159103394,
				0.413581907749176,
				0.9500000476837158
			],
			"min":[
				-0.13858193159103394,
				0.13641804456710815,
				0.75
			],
			"type":"VEC3"
		},
		{
			"bufferView":21,
			"componentType":5126,
			"count":48,
			"type":"VEC3"
		},
		{
			"bufferView":22,
			"componentType":5123,
			"count":84,
			"type":"SCALAR"
		}
	],
	"bufferViews":[
		{
			"buffer":0,
			"byteLength":576,
			"byteOffset":0,
			"target":34962
		},
		{
			"buffer":0,
			"byteLength":576,
			"byteOffset":576,
			"target":34962
		},
		{
			"buffer":0,
			"byteLength":168,
			"byteOffset":1152,
			"target":34963
		},
		{
			"buffer":0,
			"byteLength":3456,
			"byteOffset":1320,
			"target":34962
		},
		{
			"buffer":0,
			"byteLength":3456,
			"byteOffset":4776,
			"target":34962
		},
		{
			"buffer":0,
			"byteLength":1008,
			"byteOffset":8232,
			"target":34963
		},
		{
			"buffer":0,
			"byteLength":9216,
			"byteOffset":9240,
			"target":34962
		},
		{
			"buffer":0,
			"byteLength":9216,
			"byteOffset":18456,
			"target":34962
		},
		{
			"buffer":0,
			"byteLength":2688,
			"byteOffset":27672,
			"target":34963
		},
		{
			"buffer":0,
			"byteLength":1152,
			"byteOffset":30360,
			"target":34962
		},
		{
			"buffer":0,
			"byteLength":1152,
			"byteOffset":31512,
			"target":34962
		},
		{
			"buffer":0,
			"byteLength":336,
			"byteOffset":32664,
			"target":34963
		},
		{
			"buffer":0,
			"byteLength":4032,
			"byteOffset":33000,
			"target":34962
		},
		{
			"buffer":0,
			"byteLength":4032,
			"byteOffset":37032,
			"target":34962
		},
		{
			"buffer":0,
			"byteLength":1176,
			"byteOffset":41064,
			"target":34963
		},
		{
			"buffer":0,
			"byteLength":1152,
			"byteOffset":42240,
			"target":34962
		},
		{
			"buffer":0,
			"byteLength":1152,
			"byteOffset":43392,
			"target":34962
		},
		{
			"buffer":0,
			"byteLength":336,
			"byteOffset":44544,
			"target":34963
		},
		{
			"buffer":0,
			"byteLength":1152,
			"byteOffset":44880,
			"target":34962
		},
		{
			"buffer":0,
			"byteLength":1152,
			"byteOffset":46032,
			"target":34962
		},
		{
			"buffer":0,
			"byteLength":576,
			"byteOffset":47184,
			"target":34962
		},
		{
			"buffer":0,
			"byteLength":576,
			"byteOffset":47760,
			"target":34962
		},
		{
			"buffer":0,
			"byteLength":168,
			"byteOffset":48336,
			"target":34963
		}
	],
	"buffers":[
		{
			"byteLength":48504,
			"uri":"nuclear_reactor.bin"
		}
	]
}
