{
	"asset":{
		"generator":"Khronos glTF Blender I/O v4.0.44",
		"version":"2.0"
	},
	"scene":0,
	"scenes":[
		{
			"name":"Scene",
			"nodes":[
				0
			]
		}
	],
	"nodes":[
		{
			"mesh":0,
			"name":"Pump"
		}
	],
	"materials":[
		{
			"doubleSided":true,
			"name":"DarkSteel",
			"pbrMetallicRoughness":{
				"baseColorFactor":[
					0.18000000715255737,
					0.18000000715255737,
					0.18000000715255737,
					1
				],
				"roughnessFactor":0.6000000238418579
			}
		},
		{
			"doubleSided":true,
			"name":"Iron",
			"pbrMetallicRoughness":{
				"baseColorFactor":[
					0.28999999165534973,
					0.28999999165534973,
					0.28999999165534973,
					1
				],
				"roughnessFactor":0.5
			}
		},
		{
			"doubleSided":true,
			"name":"Brass",
			"pbrMetallicRoughness":{
				"baseColorFactor":[
					0.7900000214576721,
					0.6399999856948853,
					0.15000000596046448,
					1
				],
				"roughnessFactor":0.3499999940395355
			}
		},
		{
			"doubleSided":true,
			"name":"Copper",
			"pbrMetallicRoughness":{
				"baseColorFactor":[
					0.7200000286102295,
					0.44999998807907104,
					0.20000000298023224,
					1
				],
				"roughnessFactor":0.4000000059604645
			}
		},
		{
			"doubleSided":true,
			"name":"Power",
			"pbrMetallicRoughness":{
				"baseColorFactor":[
					0.20000000298023224,
					0.4000000059604645,
					0.800000011920929,
					1
				],
				"metallicFactor":0,
				"roughnessFactor":0.20000000298023224
			}
		}
	],
	"meshes":[
		{
			"name":"Base",
			"primitives":[
				{
					"attributes":{
						"POSITION":0,
						"NORMAL":1
					},
					"indices":2,
					"material":0
				},
				{
					"attributes":{
						"POSITION":3,
						"NORMAL":4
					},
					"indices":5,
					"material":1
				},
				{
					"attributes":{
						"POSITION":6,
						"NORMAL":7
					},
					"indices":8,
					"material":2
				},
				{
					"attributes":{
						"POSITION":9,
						"NORMAL":10
					},
					"indices":11,
					"material":3
				},
				{
					"attributes":{
						"POSITION":12,
						"NORMAL":13
					},
					"indices":14,
					"material":4
				}
			]
		}
	],
	"accessors":[
		{
			"bufferView":0,
			"componentType":5126,
			"count":384,
			"max":[
				0.44999998807907104,
				0.7999999523162842,
				0.5249999761581421
			],
			"min":[
				-0.44999998807907104,
				0,
				-0.5249999761581421
			],
			"type":"VEC3"
		},
		{
			"bufferView":1,
			"componentType":5126,
			"count":384,
			"type":"VEC3"
		},
		{
			"bufferView":2,
			"componentType":5123,
			"count":672,
			"type":"SCALAR"
		},
		{
			"bufferView":3,
			"componentType":5126,
			"count":240,
			"max":[
				0.37771639227867126,
				0.5499999523162842,
				0.37771639227867126
			],
			"min":[
				-0.37771639227867126,
				0.0949999988079071,
				-0.37771639227867126
			],
			"type":"VEC3"
		},
		{
			"bufferView":4,
			"componentType":5126,
			"count":240,
			"type":"VEC3"
		},
		{
			"bufferView":5,
			"componentType":5123,
			"count":420,
			"type":"SCALAR"
		},
		{
			"bufferView":6,
			"componentType":5126,
			"count":144,
			"max":[
				0.33500000834465027,
				0.47934311628341675,
				0.33500000834465027
			],
			"min":[
				-0.12934313714504242,
				0.2206568419933319,
				-0.33500000834465027
			],
			"type":"VEC3"
		},
		{
			"bufferView":7,
			"componentType":5126,
			"count":144,
			"type":"VEC3"
		},
		{
			"bufferView":8,
			"componentType":5123,
			"count":252,
			"type":"SCALAR"
		},
		{
			"bufferView":9,
			"componentType":5126,
			"count":48,
			"max":[
				0.16629831492900848,
				0.75,
				0.16629831492900848
			],
			"min":[
				-0.16629831492900848,
				0.5499999523162842,
				-0.16629831492900848
			],
			"type":"VEC3"
		},
		{
			"bufferView":10,
			"componentType":5126,
			"count":48,
			"type":"VEC3"
		},
		{
			"bufferView":11,
			"componentType":5123,
			"count":84,
			"type":"SCALAR"
		},
		{
			"bufferView":12,
			"componentType":5126,
			"count":48,
			"max":[
				0.35999998450279236,
				0.42309698462486267,
				0.02309698797762394
			],
			"min":[
				0.3400000035762787,
				0.3769030272960663,
				-0.02309698797762394
			],
			"type":"VEC3"
		},
		{
			"bufferView":13,
			"componentType":5126,
			"count":48,
			"type":"VEC3"
		},
		{
			"bufferView":14,
			"componentType":5123,
			"count":84,
			"type":"SCALAR"
		}
	],
	"bufferViews":[
		{
			"buffer":0,
			"byteLength":4608,
			"byteOffset":0,
			"target":34962
		},
		{
			"buffer":0,
			"byteLength":4608,
			"byteOffset":4608,
			"target":34962
		},
		{
			"buffer":0,
			"byteLength":1344,
			"byteOffset":9216,
			"target":34963
		},
		{
			"buffer":0,
			"byteLength":2880,
			"byteOffset":10560,
			"target":34962
		},
		{
			"buffer":0,
			"byteLength":2880,
			"byteOffset":13440,
			"target":34962
		},
		{
			"buffer":0,
			"byteLength":840,
			"byteOffset":16320,
			"target":34963
		},
		{
			"buffer":0,
			"byteLength":1728,
			"byteOffset":17160,
			"target":34962
		},
		{
			"buffer":0,
			"byteLength":1728,
			"byteOffset":18888,
			"target":34962
		},
		{
			"buffer":0,
			"byteLength":504,
			"byteOffset":20616,
			"target":34963
		},
		{
			"buffer":0,
			"byteLength":576,
			"byteOffset":21120,
			"target":34962
		},
		{
			"buffer":0,
			"byteLength":576,
			"byteOffset":21696,
			"target":34962
		},
		{
			"buffer":0,
			"byteLength":168,
			"byteOffset":22272,
			"target":34963
		},
		{
			"buffer":0,
			"byteLength":576,
			"byteOffset":22440,
			"target":34962
		},
		{
			"buffer":0,
			"byteLength":576,
			"byteOffset":23016,
			"target":34962
		},
		{
			"buffer":0,
			"byteLength":168,
			"byteOffset":23592,
			"target":34963
		}
	],
	"buffers":[
		{
			"byteLength":23760,
			"uri":"pump.bin"
		}
	]
}
