{
	"asset":{
		"generator":"Khronos glTF Blender I/O v4.0.44",
		"version":"2.0"
	},
	"scene":0,
	"scenes":[
		{
			"name":"Scene",
			"nodes":[
				0
			]
		}
	],
	"nodes":[
		{
			"mesh":0,
			"name":"SignalReceiver",
			"translation":[
				0,
				0.05000000074505806,
				0
			]
		}
	],
	"materials":[
		{
			"doubleSided":true,
			"name":"DarkSteel",
			"pbrMetallicRoughness":{
				"baseColorFactor":[
					0.18000000715255737,
					0.18000000715255737,
					0.18000000715255737,
					1
				],
				"roughnessFactor":0.6000000238418579
			}
		},
		{
			"doubleSided":true,
			"name":"Iron",
			"pbrMetallicRoughness":{
				"baseColorFactor":[
					0.28999999165534973,
					0.28999999165534973,
					0.28999999165534973,
					1
				],
				"roughnessFactor":0.5
			}
		},
		{
			"doubleSided":true,
			"name":"Copper",
			"pbrMetallicRoughness":{
				"baseColorFactor":[
					0.7200000286102295,
					0.44999998807907104,
					0.20000000298023224,
					1
				],
				"roughnessFactor":0.4000000059604645
			}
		},
		{
			"doubleSided":true,
			"name":"GlowOrange",
			"pbrMetallicRoughness":{
				"baseColorFactor":[
					1,
					0.5,
					0.10000000149011612,
					1
				],
				"metallicFactor":0,
				"roughnessFactor":0.10000000149011612
			}
		},
		{
			"doubleSided":true,
			"name":"GlowGreen",
			"pbrMetallicRoughness":{
				"baseColorFactor":[
					0.20000000298023224,
					1,
					0.4000000059604645,
					1
				],
				"metallicFactor":0,
				"roughnessFactor":0.10000000149011612
			}
		}
	],
	"meshes":[
		{
			"name":"Base",
			"primitives":[
				{
					"attributes":{
						"POSITION":0,
						"NORMAL":1
					},
					"indices":2,
					"material":0
				},
				{
					"attributes":{
						"POSITION":3,
						"NORMAL":4
					},
					"indices":5,
					"material":1
				},
				{
					"attributes":{
						"POSITION":6,
						"NORMAL":7
					},
					"indices":8,
					"material":2
				},
				{
					"attributes":{
						"POSITION":9,
						"NORMAL":10
					},
					"indices":11,
					"material":3
				},
				{
					"attributes":{
						"POSITION":12,
						"NORMAL":13
					},
					"indices":14,
					"material":4
				}
			]
		}
	],
	"accessors":[
		{
			"bufferView":0,
			"componentType":5126,
			"count":144,
			"max":[
				0.30000001192092896,
				0.7249999642372131,
				0.30000001192092896
			],
			"min":[
				-0.30000001192092896,
				-0.05000000074505806,
				-0.30000001192092896
			],
			"type":"VEC3"
		},
		{
			"bufferView":1,
			"componentType":5126,
			"count":144,
			"type":"VEC3"
		},
		{
			"bufferView":2,
			"componentType":5123,
			"count":252,
			"type":"SCALAR"
		},
		{
			"bufferView":3,
			"componentType":5126,
			"count":336,
			"max":[
				0.25,
				0.7300000190734863,
				0.23847758769989014
			],
			"min":[
				-0.23847758769989014,
				0.04749999940395355,
				-0.23847758769989014
			],
			"type":"VEC3"
		},
		{
			"bufferView":4,
			"componentType":5126,
			"count":336,
			"type":"VEC3"
		},
		{
			"bufferView":5,
			"componentType":5123,
			"count":588,
			"type":"SCALAR"
		},
		{
			"bufferView":6,
			"componentType":5126,
			"count":96,
			"max":[
				0.11086554080247879,
				0.8499999642372131,
				0.11086554080247879
			],
			"min":[
				-0.11086554080247879,
				0.5499999523162842,
				-0.11086554080247879
			],
			"type":"VEC3"
		},
		{
			"bufferView":7,
			"componentType":5126,
			"count":96,
			"type":"VEC3"
		},
		{
			"bufferView":8,
			"componentType":5123,
			"count":168,
			"type":"SCALAR"
		},
		{
			"bufferView":9,
			"componentType":5126,
			"count":48,
			"max":[
				0.04619397595524788,
				0.8899999856948853,
				0.04619397595524788
			],
			"min":[
				-0.04619397595524788,
				0.8500000238418579,
				-0.04619397595524788
			],
			"type":"VEC3"
		},
		{
			"bufferView":10,
			"componentType":5126,
			"count":48,
			"type":"VEC3"
		},
		{
			"bufferView":11,
			"componentType":5123,
			"count":84,
			"type":"SCALAR"
		},
		{
			"bufferView":12,
			"componentType":5126,
			"count":48,
			"max":[
				0.24000000953674316,
				0.21847759187221527,
				0.01847759075462818
			],
			"min":[
				0.2199999988079071,
				0.1815224140882492,
				-0.01847759075462818
			],
			"type":"VEC3"
		},
		{
			"bufferView":13,
			"componentType":5126,
			"count":48,
			"type":"VEC3"
		},
		{
			"bufferView":14,
			"componentType":5123,
			"count":84,
			"type":"SCALAR"
		}
	],
	"bufferViews":[
		{
			"buffer":0,
			"byteLength":1728,
			"byteOffset":0,
			"target":34962
		},
		{
			"buffer":0,
			"byteLength":1728,
			"byteOffset":1728,
			"target":34962
		},
		{
			"buffer":0,
			"byteLength":504,
			"byteOffset":3456,
			"target":34963
		},
		{
			"buffer":0,
			"byteLength":4032,
			"byteOffset":3960,
			"target":34962
		},
		{
			"buffer":0,
			"byteLength":4032,
			"byteOffset":7992,
			"target":34962
		},
		{
			"buffer":0,
			"byteLength":1176,
			"byteOffset":12024,
			"target":34963
		},
		{
			"buffer":0,
			"byteLength":1152,
			"byteOffset":13200,
			"target":34962
		},
		{
			"buffer":0,
			"byteLength":1152,
			"byteOffset":14352,
			"target":34962
		},
		{
			"buffer":0,
			"byteLength":336,
			"byteOffset":15504,
			"target":34963
		},
		{
			"buffer":0,
			"byteLength":576,
			"byteOffset":15840,
			"target":34962
		},
		{
			"buffer":0,
			"byteLength":576,
			"byteOffset":16416,
			"target":34962
		},
		{
			"buffer":0,
			"byteLength":168,
			"byteOffset":16992,
			"target":34963
		},
		{
			"buffer":0,
			"byteLength":576,
			"byteOffset":17160,
			"target":34962
		},
		{
			"buffer":0,
			"byteLength":576,
			"byteOffset":17736,
			"target":34962
		},
		{
			"buffer":0,
			"byteLength":168,
			"byteOffset":18312,
			"target":34963
		}
	],
	"buffers":[
		{
			"byteLength":18480,
			"uri":"signal_receiver.bin"
		}
	]
}
