{
	"asset":{
		"generator":"Khronos glTF Blender I/O v4.0.44",
		"version":"2.0"
	},
	"scene":0,
	"scenes":[
		{
			"name":"Scene",
			"nodes":[
				0
			]
		}
	],
	"nodes":[
		{
			"mesh":0,
			"name":"SignalTransmitter",
			"translation":[
				0,
				0.05000000074505806,
				0
			]
		}
	],
	"materials":[
		{
			"doubleSided":true,
			"name":"DarkSteel",
			"pbrMetallicRoughness":{
				"baseColorFactor":[
					0.18000000715255737,
					0.18000000715255737,
					0.18000000715255737,
					1
				],
				"roughnessFactor":0.6000000238418579
			}
		},
		{
			"doubleSided":true,
			"name":"Iron",
			"pbrMetallicRoughness":{
				"baseColorFactor":[
					0.28999999165534973,
					0.28999999165534973,
					0.28999999165534973,
					1
				],
				"roughnessFactor":0.5
			}
		},
		{
			"doubleSided":true,
			"name":"Copper",
			"pbrMetallicRoughness":{
				"baseColorFactor":[
					0.7200000286102295,
					0.44999998807907104,
					0.20000000298023224,
					1
				],
				"roughnessFactor":0.4000000059604645
			}
		},
		{
			"doubleSided":true,
			"name":"GlowBlue",
			"pbrMetallicRoughness":{
				"baseColorFactor":[
					0.20000000298023224,
					0.5,
					1,
					1
				],
				"metallicFactor":0,
				"roughnessFactor":0.10000000149011612
			}
		},
		{
			"doubleSided":true,
			"name":"GlowGreen",
			"pbrMetallicRoughness":{
				"baseColorFactor":[
					0.20000000298023224,
					1,
					0.4000000059604645,
					1
				],
				"metallicFactor":0,
				"roughnessFactor":0.10000000149011612
			}
		}
	],
	"meshes":[
		{
			"name":"Base",
			"primitives":[
				{
					"attributes":{
						"POSITION":0,
						"NORMAL":1
					},
					"indices":2,
					"material":0
				},
				{
					"attributes":{
						"POSITION":3,
						"NORMAL":4
					},
					"indices":5,
					"material":1
				},
				{
					"attributes":{
						"POSITION":6,
						"NORMAL":7
					},
					"indices":8,
					"material":2
				},
				{
					"attributes":{
						"POSITION":9,
						"NORMAL":10
					},
					"indices":11,
					"material":3
				},
				{
					"attributes":{
						"POSITION":12,
						"NORMAL":13
					},
					"indices":14,
					"material":4
				}
			]
		}
	],
	"accessors":[
		{
			"bufferView":0,
			"componentType":5126,
			"count":96,
			"max":[
				0.30000001192092896,
				0.13695518672466278,
				0.30000001192092896
			],
			"min":[
				-0.30000001192092896,
				-0.05000000074505806,
				-0.30000001192092896
			],
			"type":"VEC3"
		},
		{
			"bufferView":1,
			"componentType":5126,
			"count":96,
			"type":"VEC3"
		},
		{
			"bufferView":2,
			"componentType":5123,
			"count":168,
			"type":"SCALAR"
		},
		{
			"bufferView":3,
			"componentType":5126,
			"count":288,
			"max":[
				0.25,
				0.6499999761581421,
				0.23847758769989014
			],
			"min":[
				-0.23847758769989014,
				0.04749999940395355,
				-0.23847758769989014
			],
			"type":"VEC3"
		},
		{
			"bufferView":4,
			"componentType":5126,
			"count":288,
			"type":"VEC3"
		},
		{
			"bufferView":5,
			"componentType":5123,
			"count":504,
			"type":"SCALAR"
		},
		{
			"bufferView":6,
			"componentType":5126,
			"count":240,
			"max":[
				0.13858193159103394,
				1.100000023841858,
				0.13858193159103394
			],
			"min":[
				-0.13858193159103394,
				0.6499999761581421,
				-0.13858193159103394
			],
			"type":"VEC3"
		},
		{
			"bufferView":7,
			"componentType":5126,
			"count":240,
			"type":"VEC3"
		},
		{
			"bufferView":8,
			"componentType":5123,
			"count":420,
			"type":"SCALAR"
		},
		{
			"bufferView":9,
			"componentType":5126,
			"count":48,
			"max":[
				0.055432770401239395,
				1.1800000667572021,
				0.055432770401239395
			],
			"min":[
				-0.055432770401239395,
				1.1000001430511475,
				-0.055432770401239395
			],
			"type":"VEC3"
		},
		{
			"bufferView":10,
			"componentType":5126,
			"count":48,
			"type":"VEC3"
		},
		{
			"bufferView":11,
			"componentType":5123,
			"count":84,
			"type":"SCALAR"
		},
		{
			"bufferView":12,
			"componentType":5126,
			"count":48,
			"max":[
				0.24000000953674316,
				0.21847759187221527,
				0.01847759075462818
			],
			"min":[
				0.2199999988079071,
				0.1815224140882492,
				-0.01847759075462818
			],
			"type":"VEC3"
		},
		{
			"bufferView":13,
			"componentType":5126,
			"count":48,
			"type":"VEC3"
		},
		{
			"bufferView":14,
			"componentType":5123,
			"count":84,
			"type":"SCALAR"
		}
	],
	"bufferViews":[
		{
			"buffer":0,
			"byteLength":1152,
			"byteOffset":0,
			"target":34962
		},
		{
			"buffer":0,
			"byteLength":1152,
			"byteOffset":1152,
			"target":34962
		},
		{
			"buffer":0,
			"byteLength":336,
			"byteOffset":2304,
			"target":34963
		},
		{
			"buffer":0,
			"byteLength":3456,
			"byteOffset":2640,
			"target":34962
		},
		{
			"buffer":0,
			"byteLength":3456,
			"byteOffset":6096,
			"target":34962
		},
		{
			"buffer":0,
			"byteLength":1008,
			"byteOffset":9552,
			"target":34963
		},
		{
			"buffer":0,
			"byteLength":2880,
			"byteOffset":10560,
			"target":34962
		},
		{
			"buffer":0,
			"byteLength":2880,
			"byteOffset":13440,
			"target":34962
		},
		{
			"buffer":0,
			"byteLength":840,
			"byteOffset":16320,
			"target":34963
		},
		{
			"buffer":0,
			"byteLength":576,
			"byteOffset":17160,
			"target":34962
		},
		{
			"buffer":0,
			"byteLength":576,
			"byteOffset":17736,
			"target":34962
		},
		{
			"buffer":0,
			"byteLength":168,
			"byteOffset":18312,
			"target":34963
		},
		{
			"buffer":0,
			"byteLength":576,
			"byteOffset":18480,
			"target":34962
		},
		{
			"buffer":0,
			"byteLength":576,
			"byteOffset":19056,
			"target":34962
		},
		{
			"buffer":0,
			"byteLength":168,
			"byteOffset":19632,
			"target":34963
		}
	],
	"buffers":[
		{
			"byteLength":19800,
			"uri":"signal_transmitter.bin"
		}
	]
}
