{
	"asset":{
		"generator":"Khronos glTF Blender I/O v4.0.44",
		"version":"2.0"
	},
	"scene":0,
	"scenes":[
		{
			"name":"Scene",
			"nodes":[
				0
			]
		}
	],
	"nodes":[
		{
			"mesh":0,
			"name":"Smelter"
		}
	],
	"materials":[
		{
			"doubleSided":true,
			"name":"dark_steel.002",
			"pbrMetallicRoughness":{
				"baseColorFactor":[
					0.18000000715255737,
					0.18000000715255737,
					0.18000000715255737,
					1
				],
				"roughnessFactor":0.6000000238418579
			}
		},
		{
			"doubleSided":true,
			"name":"iron.008",
			"pbrMetallicRoughness":{
				"baseColorFactor":[
					0.28999999165534973,
					0.28999999165534973,
					0.28999999165534973,
					1
				],
				"roughnessFactor":0.5
			}
		},
		{
			"doubleSided":true,
			"name":"brass.001",
			"pbrMetallicRoughness":{
				"baseColorFactor":[
					0.7900000214576721,
					0.6399999856948853,
					0.15000000596046448,
					1
				],
				"roughnessFactor":0.4000000059604645
			}
		},
		{
			"doubleSided":true,
			"name":"danger",
			"pbrMetallicRoughness":{
				"baseColorFactor":[
					0.800000011920929,
					0.20000000298023224,
					0.20000000298023224,
					1
				],
				"metallicFactor":0.10000000149011612,
				"roughnessFactor":0.30000001192092896
			}
		}
	],
	"meshes":[
		{
			"name":"Body.001",
			"primitives":[
				{
					"attributes":{
						"COLOR_0":0,
						"POSITION":1,
						"NORMAL":2
					},
					"indices":3,
					"material":0
				},
				{
					"attributes":{
						"COLOR_0":4,
						"POSITION":5,
						"NORMAL":6
					},
					"indices":7,
					"material":1
				},
				{
					"attributes":{
						"COLOR_0":8,
						"POSITION":9,
						"NORMAL":10
					},
					"indices":11,
					"material":2
				},
				{
					"attributes":{
						"COLOR_0":12,
						"POSITION":13,
						"NORMAL":14
					},
					"indices":3,
					"material":3
				}
			]
		}
	],
	"accessors":[
		{
			"bufferView":0,
			"componentType":5123,
			"count":48,
			"normalized":true,
			"type":"VEC4"
		},
		{
			"bufferView":1,
			"componentType":5126,
			"count":48,
			"max":[
				0.3824999928474426,
				0.6119999885559082,
				0.3824999928474426
			],
			"min":[
				-0.3824999928474426,
				0,
				-0.3824999928474426
			],
			"type":"VEC3"
		},
		{
			"bufferView":2,
			"componentType":5126,
			"count":48,
			"type":"VEC3"
		},
		{
			"bufferView":3,
			"componentType":5123,
			"count":84,
			"type":"SCALAR"
		},
		{
			"bufferView":4,
			"componentType":5123,
			"count":240,
			"normalized":true,
			"type":"VEC4"
		},
		{
			"bufferView":5,
			"componentType":5126,
			"count":240,
			"max":[
				0.3824999928474426,
				0.7267500162124634,
				0.4625000059604645
			],
			"min":[
				-0.3824999928474426,
				0.1938396394252777,
				-0.4625000059604645
			],
			"type":"VEC3"
		},
		{
			"bufferView":6,
			"componentType":5126,
			"count":240,
			"type":"VEC3"
		},
		{
			"bufferView":7,
			"componentType":5123,
			"count":420,
			"type":"SCALAR"
		},
		{
			"bufferView":8,
			"componentType":5123,
			"count":288,
			"normalized":true,
			"type":"VEC4"
		},
		{
			"bufferView":9,
			"componentType":5126,
			"count":288,
			"max":[
				0.30274999141693115,
				0.8067499995231628,
				0.4750000238418579
			],
			"min":[
				-0.30274999141693115,
				0.17166653275489807,
				-0.4750000238418579
			],
			"type":"VEC3"
		},
		{
			"bufferView":10,
			"componentType":5126,
			"count":288,
			"type":"VEC3"
		},
		{
			"bufferView":11,
			"componentType":5123,
			"count":492,
			"type":"SCALAR"
		},
		{
			"bufferView":12,
			"componentType":5123,
			"count":48,
			"normalized":true,
			"type":"VEC4"
		},
		{
			"bufferView":13,
			"componentType":5126,
			"count":48,
			"max":[
				0.11474999785423279,
				0.26774999499320984,
				-0.35750001668930054
			],
			"min":[
				-0.11474999785423279,
				0.11474999785423279,
				-0.38749998807907104
			],
			"type":"VEC3"
		},
		{
			"bufferView":14,
			"componentType":5126,
			"count":48,
			"type":"VEC3"
		}
	],
	"bufferViews":[
		{
			"buffer":0,
			"byteLength":384,
			"byteOffset":0,
			"target":34962
		},
		{
			"buffer":0,
			"byteLength":576,
			"byteOffset":384,
			"target":34962
		},
		{
			"buffer":0,
			"byteLength":576,
			"byteOffset":960,
			"target":34962
		},
		{
			"buffer":0,
			"byteLength":168,
			"byteOffset":1536,
			"target":34963
		},
		{
			"buffer":0,
			"byteLength":1920,
			"byteOffset":1704,
			"target":34962
		},
		{
			"buffer":0,
			"byteLength":2880,
			"byteOffset":3624,
			"target":34962
		},
		{
			"buffer":0,
			"byteLength":2880,
			"byteOffset":6504,
			"target":34962
		},
		{
			"buffer":0,
			"byteLength":840,
			"byteOffset":9384,
			"target":34963
		},
		{
			"buffer":0,
			"byteLength":2304,
			"byteOffset":10224,
			"target":34962
		},
		{
			"buffer":0,
			"byteLength":3456,
			"byteOffset":12528,
			"target":34962
		},
		{
			"buffer":0,
			"byteLength":3456,
			"byteOffset":15984,
			"target":34962
		},
		{
			"buffer":0,
			"byteLength":984,
			"byteOffset":19440,
			"target":34963
		},
		{
			"buffer":0,
			"byteLength":384,
			"byteOffset":20424,
			"target":34962
		},
		{
			"buffer":0,
			"byteLength":576,
			"byteOffset":20808,
			"target":34962
		},
		{
			"buffer":0,
			"byteLength":576,
			"byteOffset":21384,
			"target":34962
		}
	],
	"buffers":[
		{
			"byteLength":21960,
			"uri":"smelter.bin"
		}
	]
}
