{
	"asset":{
		"generator":"Khronos glTF Blender I/O v4.0.44",
		"version":"2.0"
	},
	"scene":0,
	"scenes":[
		{
			"name":"Scene",
			"nodes":[
				0
			]
		}
	],
	"nodes":[
		{
			"mesh":0,
			"name":"TrainEngine",
			"translation":[
				0,
				0.17499999701976776,
				0
			]
		}
	],
	"materials":[
		{
			"doubleSided":true,
			"name":"DarkSteel",
			"pbrMetallicRoughness":{
				"baseColorFactor":[
					0.18000000715255737,
					0.18000000715255737,
					0.18000000715255737,
					1
				],
				"roughnessFactor":0.6000000238418579
			}
		},
		{
			"doubleSided":true,
			"name":"Iron",
			"pbrMetallicRoughness":{
				"baseColorFactor":[
					0.28999999165534973,
					0.28999999165534973,
					0.28999999165534973,
					1
				],
				"roughnessFactor":0.5
			}
		},
		{
			"doubleSided":true,
			"name":"Window",
			"pbrMetallicRoughness":{
				"baseColorFactor":[
					0.20000000298023224,
					0.30000001192092896,
					0.4000000059604645,
					1
				],
				"metallicFactor":0,
				"roughnessFactor":0.20000000298023224
			}
		},
		{
			"doubleSided":true,
			"name":"Headlight",
			"pbrMetallicRoughness":{
				"baseColorFactor":[
					1,
					0.949999988079071,
					0.699999988079071,
					1
				],
				"metallicFactor":0,
				"roughnessFactor":0.10000000149011612
			}
		},
		{
			"doubleSided":true,
			"name":"Brass",
			"pbrMetallicRoughness":{
				"baseColorFactor":[
					0.7900000214576721,
					0.6399999856948853,
					0.15000000596046448,
					1
				],
				"roughnessFactor":0.3499999940395355
			}
		},
		{
			"doubleSided":true,
			"name":"Danger",
			"pbrMetallicRoughness":{
				"baseColorFactor":[
					0.800000011920929,
					0.20000000298023224,
					0.20000000298023224,
					1
				],
				"metallicFactor":0,
				"roughnessFactor":0.30000001192092896
			}
		}
	],
	"meshes":[
		{
			"name":"Frame",
			"primitives":[
				{
					"attributes":{
						"POSITION":0,
						"NORMAL":1
					},
					"indices":2,
					"material":0
				},
				{
					"attributes":{
						"POSITION":3,
						"NORMAL":4
					},
					"indices":5,
					"material":1
				},
				{
					"attributes":{
						"POSITION":6,
						"NORMAL":7
					},
					"indices":8,
					"material":2
				},
				{
					"attributes":{
						"POSITION":9,
						"NORMAL":10
					},
					"indices":11,
					"material":3
				},
				{
					"attributes":{
						"POSITION":12,
						"NORMAL":13
					},
					"indices":14,
					"material":4
				},
				{
					"attributes":{
						"POSITION":15,
						"NORMAL":16
					},
					"indices":11,
					"material":5
				}
			]
		}
	],
	"accessors":[
		{
			"bufferView":0,
			"componentType":5126,
			"count":432,
			"max":[
				0.8999999761581421,
				1.274999976158142,
				0.4399999976158142
			],
			"min":[
				-0.8999999761581421,
				-0.21358191967010498,
				-0.4399999976158142
			],
			"type":"VEC3"
		},
		{
			"bufferView":1,
			"componentType":5126,
			"count":432,
			"type":"VEC3"
		},
		{
			"bufferView":2,
			"componentType":5123,
			"count":756,
			"type":"SCALAR"
		},
		{
			"bufferView":3,
			"componentType":5126,
			"count":240,
			"max":[
				1.0450000762939453,
				0.9749999642372131,
				0.3499999940395355
			],
			"min":[
				-1.0450000762939453,
				-0.07500000298023224,
				-0.3499999940395355
			],
			"type":"VEC3"
		},
		{
			"bufferView":4,
			"componentType":5126,
			"count":240,
			"type":"VEC3"
		},
		{
			"bufferView":5,
			"componentType":5123,
			"count":420,
			"type":"SCALAR"
		},
		{
			"bufferView":6,
			"componentType":5126,
			"count":144,
			"max":[
				-0.2550000250339508,
				0.925000011920929,
				0.3449999988079071
			],
			"min":[
				-0.6499999761581421,
				0.7249999642372131,
				-0.3449999988079071
			],
			"type":"VEC3"
		},
		{
			"bufferView":7,
			"componentType":5126,
			"count":144,
			"type":"VEC3"
		},
		{
			"bufferView":8,
			"componentType":5123,
			"count":252,
			"type":"SCALAR"
		},
		{
			"bufferView":9,
			"componentType":5126,
			"count":48,
			"max":[
				0.9249999523162842,
				0.4989103674888611,
				0.07391036301851273
			],
			"min":[
				0.875,
				0.3510896563529968,
				-0.07391036301851273
			],
			"type":"VEC3"
		},
		{
			"bufferView":10,
			"componentType":5126,
			"count":48,
			"type":"VEC3"
		},
		{
			"bufferView":11,
			"componentType":5123,
			"count":84,
			"type":"SCALAR"
		},
		{
			"bufferView":12,
			"componentType":5126,
			"count":384,
			"max":[
				0.6461939811706543,
				0.6349999904632568,
				0.4750000238418579
			],
			"min":[
				-0.6461939811706543,
				-0.12119397521018982,
				-0.4750000238418579
			],
			"type":"VEC3"
		},
		{
			"bufferView":13,
			"componentType":5126,
			"count":384,
			"type":"VEC3"
		},
		{
			"bufferView":14,
			"componentType":5123,
			"count":672,
			"type":"SCALAR"
		},
		{
			"bufferView":15,
			"componentType":5126,
			"count":48,
			"max":[
				-0.7549999952316284,
				0.961955189704895,
				0.03695518150925636
			],
			"min":[
				-0.7849999666213989,
				0.8880448341369629,
				-0.03695518150925636
			],
			"type":"VEC3"
		},
		{
			"bufferView":16,
			"componentType":5126,
			"count":48,
			"type":"VEC3"
		}
	],
	"bufferViews":[
		{
			"buffer":0,
			"byteLength":5184,
			"byteOffset":0,
			"target":34962
		},
		{
			"buffer":0,
			"byteLength":5184,
			"byteOffset":5184,
			"target":34962
		},
		{
			"buffer":0,
			"byteLength":1512,
			"byteOffset":10368,
			"target":34963
		},
		{
			"buffer":0,
			"byteLength":2880,
			"byteOffset":11880,
			"target":34962
		},
		{
			"buffer":0,
			"byteLength":2880,
			"byteOffset":14760,
			"target":34962
		},
		{
			"buffer":0,
			"byteLength":840,
			"byteOffset":17640,
			"target":34963
		},
		{
			"buffer":0,
			"byteLength":1728,
			"byteOffset":18480,
			"target":34962
		},
		{
			"buffer":0,
			"byteLength":1728,
			"byteOffset":20208,
			"target":34962
		},
		{
			"buffer":0,
			"byteLength":504,
			"byteOffset":21936,
			"target":34963
		},
		{
			"buffer":0,
			"byteLength":576,
			"byteOffset":22440,
			"target":34962
		},
		{
			"buffer":0,
			"byteLength":576,
			"byteOffset":23016,
			"target":34962
		},
		{
			"buffer":0,
			"byteLength":168,
			"byteOffset":23592,
			"target":34963
		},
		{
			"buffer":0,
			"byteLength":4608,
			"byteOffset":23760,
			"target":34962
		},
		{
			"buffer":0,
			"byteLength":4608,
			"byteOffset":28368,
			"target":34962
		},
		{
			"buffer":0,
			"byteLength":1344,
			"byteOffset":32976,
			"target":34963
		},
		{
			"buffer":0,
			"byteLength":576,
			"byteOffset":34320,
			"target":34962
		},
		{
			"buffer":0,
			"byteLength":576,
			"byteOffset":34896,
			"target":34962
		}
	],
	"buffers":[
		{
			"byteLength":35472,
			"uri":"train_engine.bin"
		}
	]
}
